M48
METRIC,LZ,000.000
;FILE_FORMAT=3:3
;TYPE=PLATED
;Layer: PTH_Through
;EasyEDA v6.5.1, 2022-03-31 19:18:02
;fb237d5051ec4c31b6b5e7a524a6c443,10
;Gerber Generator version 0.2
;Holesize 1 = 0.305 mm
T01C0.305
;Holesize 2 = 1.000 mm
T02C1.000
%
G05
G90
T01
X036068Y-000889
X010795Y-001143
X010795Y-001905
X010099Y-001884
X009383Y-001883
X010107Y-001143
X009408Y-001129
X022920Y-010208
X022984Y-011030
X022851Y-011943
X023980Y-011965
X024130Y-011049
X023998Y-010035
X023574Y-010604
X023479Y-011487
X029557Y-004952
X039751Y-008128
X052781Y-008809
X052781Y-009698
X052146Y-009317
X053416Y-009444
X054991Y-007112
X058166Y-011811
X051689Y-007366
X040767Y-002794
X058928Y-013081
X030988Y-007747
X011549Y-009347
X019050Y-004445
X031576Y-005271
X023660Y-006778
X020586Y-011189
X014478Y-005663
X032385Y-007874
X038989Y-000889
X035179Y-002540
X029591Y-010160
X033528Y-010541
X034163Y-007493
X038608Y-009017
X036882Y-011303
X012700Y-012446
X007493Y-007112
X024892Y-008763
X044196Y-003175
X052578Y-001143
X047498Y-007112
X050038Y-007112
X056565Y-006604
X045212Y-006604
X052451Y-002540
X042672Y-004445
X040259Y-011557
X041021Y-011684
X040640Y-012319
X040640Y-012319
X040259Y-012954
X039878Y-012319
X041402Y-012319
X041148Y-012954
X045720Y-007366
X052832Y-006096
X048641Y-005080
X047244Y-011176
X054483Y-004826
X047421Y-001397
X042672Y-003556
X049530Y-011176
T02
X056007Y-012398
X053507Y-012398
X051007Y-012398
X048507Y-012398
X046007Y-012398
X043507Y-012398
M30
