G04 Layer: TopSolderMaskLayer*
G04 EasyEDA v6.5.1, 2022-03-31 19:18:02*
G04 fb237d5051ec4c31b6b5e7a524a6c443,10*
G04 Gerber Generator version 0.2*
G04 Scale: 100 percent, Rotated: No, Reflected: No *
G04 Dimensions in millimeters *
G04 leading zeros omitted , absolute positions ,4 integer and 5 decimal *
%FSLAX45Y45*%
%MOMM*%

%ADD53C,1.9016*%

%LPD*%
G36*
X3707129Y-1325371D02*
G01*
X3707129Y-1240028D01*
X3817111Y-1240028D01*
X3817111Y-1325371D01*
G37*
G36*
X3472688Y-1325371D02*
G01*
X3472688Y-1240028D01*
X3582670Y-1240028D01*
X3582670Y-1325371D01*
G37*
G36*
X3719829Y-868171D02*
G01*
X3719829Y-782828D01*
X3829811Y-782828D01*
X3829811Y-868171D01*
G37*
G36*
X3485388Y-868171D02*
G01*
X3485388Y-782828D01*
X3595370Y-782828D01*
X3595370Y-868171D01*
G37*
G36*
X4684775Y-458978D02*
G01*
X4684775Y-348742D01*
X4814824Y-348742D01*
X4814824Y-458978D01*
G37*
G36*
X4684775Y-768857D02*
G01*
X4684775Y-658621D01*
X4814824Y-658621D01*
X4814824Y-768857D01*
G37*
G36*
X4938775Y-458978D02*
G01*
X4938775Y-348742D01*
X5068824Y-348742D01*
X5068824Y-458978D01*
G37*
G36*
X4938775Y-768857D02*
G01*
X4938775Y-658621D01*
X5068824Y-658621D01*
X5068824Y-768857D01*
G37*
G36*
X861568Y-896112D02*
G01*
X861568Y-805687D01*
X1034542Y-805687D01*
X1034542Y-896112D01*
G37*
G36*
X861568Y-1023112D02*
G01*
X861568Y-932687D01*
X1034542Y-932687D01*
X1034542Y-1023112D01*
G37*
G36*
X861568Y-1150112D02*
G01*
X861568Y-1059687D01*
X1034542Y-1059687D01*
X1034542Y-1150112D01*
G37*
G36*
X861568Y-1277112D02*
G01*
X861568Y-1186687D01*
X1034542Y-1186687D01*
X1034542Y-1277112D01*
G37*
G36*
X1404112Y-1277112D02*
G01*
X1404112Y-1186687D01*
X1576831Y-1186687D01*
X1576831Y-1277112D01*
G37*
G36*
X1404112Y-1150112D02*
G01*
X1404112Y-1059687D01*
X1576831Y-1059687D01*
X1576831Y-1150112D01*
G37*
G36*
X1404112Y-1023112D02*
G01*
X1404112Y-932687D01*
X1576831Y-932687D01*
X1576831Y-1023112D01*
G37*
G36*
X1404112Y-896112D02*
G01*
X1404112Y-805687D01*
X1576831Y-805687D01*
X1576831Y-896112D01*
G37*
G36*
X2242311Y-1277112D02*
G01*
X2242311Y-1186687D01*
X2415031Y-1186687D01*
X2415031Y-1277112D01*
G37*
G36*
X2242311Y-1150112D02*
G01*
X2242311Y-1059687D01*
X2415031Y-1059687D01*
X2415031Y-1150112D01*
G37*
G36*
X2242311Y-1023112D02*
G01*
X2242311Y-932687D01*
X2415031Y-932687D01*
X2415031Y-1023112D01*
G37*
G36*
X2242311Y-896112D02*
G01*
X2242311Y-805687D01*
X2415031Y-805687D01*
X2415031Y-896112D01*
G37*
G36*
X1699768Y-896112D02*
G01*
X1699768Y-805687D01*
X1872742Y-805687D01*
X1872742Y-896112D01*
G37*
G36*
X1699768Y-1023112D02*
G01*
X1699768Y-932687D01*
X1872742Y-932687D01*
X1872742Y-1023112D01*
G37*
G36*
X1699768Y-1150112D02*
G01*
X1699768Y-1059687D01*
X1872742Y-1059687D01*
X1872742Y-1150112D01*
G37*
G36*
X1699768Y-1277112D02*
G01*
X1699768Y-1186687D01*
X1872742Y-1186687D01*
X1872742Y-1277112D01*
G37*
G36*
X2537459Y-973836D02*
G01*
X2537459Y-893571D01*
X2672588Y-893571D01*
X2672588Y-973836D01*
G37*
G36*
X2537459Y-1163828D02*
G01*
X2537459Y-1083563D01*
X2672588Y-1083563D01*
X2672588Y-1163828D01*
G37*
G36*
X2737611Y-1068831D02*
G01*
X2737611Y-988568D01*
X2872740Y-988568D01*
X2872740Y-1068831D01*
G37*
G36*
X900429Y-530860D02*
G01*
X900429Y-399795D01*
X1080770Y-399795D01*
X1080770Y-530860D01*
G37*
G36*
X900429Y-235204D02*
G01*
X900429Y-104139D01*
X1080770Y-104139D01*
X1080770Y-235204D01*
G37*
G36*
X5787897Y-734313D02*
G01*
X5787897Y-586486D01*
X5911341Y-586486D01*
X5911341Y-734313D01*
G37*
G36*
X5594858Y-734313D02*
G01*
X5594858Y-586486D01*
X5718302Y-586486D01*
X5718302Y-734313D01*
G37*
G36*
X2051558Y-429513D02*
G01*
X2051558Y-281686D01*
X2175002Y-281686D01*
X2175002Y-429513D01*
G37*
G36*
X2244597Y-429513D02*
G01*
X2244597Y-281686D01*
X2368041Y-281686D01*
X2368041Y-429513D01*
G37*
G36*
X3107181Y-699007D02*
G01*
X3107181Y-622300D01*
X3145281Y-622300D01*
X3145281Y-699007D01*
G37*
G36*
X3157220Y-699007D02*
G01*
X3157220Y-622300D01*
X3195320Y-622300D01*
X3195320Y-699007D01*
G37*
G36*
X3207258Y-699007D02*
G01*
X3207258Y-622300D01*
X3245104Y-622300D01*
X3245104Y-699007D01*
G37*
G36*
X3257295Y-699007D02*
G01*
X3257295Y-622300D01*
X3295141Y-622300D01*
X3295141Y-699007D01*
G37*
G36*
X3307079Y-699007D02*
G01*
X3307079Y-622300D01*
X3345179Y-622300D01*
X3345179Y-699007D01*
G37*
G36*
X3357118Y-699007D02*
G01*
X3357118Y-622300D01*
X3395218Y-622300D01*
X3395218Y-699007D01*
G37*
G36*
X3403600Y-613918D02*
G01*
X3403600Y-575818D01*
X3480308Y-575818D01*
X3480308Y-613918D01*
G37*
G36*
X3403600Y-563879D02*
G01*
X3403600Y-525779D01*
X3480308Y-525779D01*
X3480308Y-563879D01*
G37*
G36*
X3403600Y-513842D02*
G01*
X3403600Y-475995D01*
X3480308Y-475995D01*
X3480308Y-513842D01*
G37*
G36*
X3403600Y-463804D02*
G01*
X3403600Y-425957D01*
X3480308Y-425957D01*
X3480308Y-463804D01*
G37*
G36*
X3403600Y-414020D02*
G01*
X3403600Y-375920D01*
X3480308Y-375920D01*
X3480308Y-414020D01*
G37*
G36*
X3403600Y-363981D02*
G01*
X3403600Y-325881D01*
X3480308Y-325881D01*
X3480308Y-363981D01*
G37*
G36*
X3357118Y-317500D02*
G01*
X3357118Y-240792D01*
X3395218Y-240792D01*
X3395218Y-317500D01*
G37*
G36*
X3307079Y-317500D02*
G01*
X3307079Y-240792D01*
X3345179Y-240792D01*
X3345179Y-317500D01*
G37*
G36*
X3257295Y-317500D02*
G01*
X3257295Y-240792D01*
X3295141Y-240792D01*
X3295141Y-317500D01*
G37*
G36*
X3207258Y-317500D02*
G01*
X3207258Y-240792D01*
X3245104Y-240792D01*
X3245104Y-317500D01*
G37*
G36*
X3157220Y-317500D02*
G01*
X3157220Y-240792D01*
X3195320Y-240792D01*
X3195320Y-317500D01*
G37*
G36*
X3107181Y-317500D02*
G01*
X3107181Y-240792D01*
X3145281Y-240792D01*
X3145281Y-317500D01*
G37*
G36*
X3022091Y-363981D02*
G01*
X3022091Y-325881D01*
X3098800Y-325881D01*
X3098800Y-363981D01*
G37*
G36*
X3022091Y-414020D02*
G01*
X3022091Y-375920D01*
X3098800Y-375920D01*
X3098800Y-414020D01*
G37*
G36*
X3022091Y-463804D02*
G01*
X3022091Y-425957D01*
X3098800Y-425957D01*
X3098800Y-463804D01*
G37*
G36*
X3022091Y-513842D02*
G01*
X3022091Y-475995D01*
X3098800Y-475995D01*
X3098800Y-513842D01*
G37*
G36*
X3022091Y-563879D02*
G01*
X3022091Y-525779D01*
X3098800Y-525779D01*
X3098800Y-563879D01*
G37*
G36*
X3022091Y-613918D02*
G01*
X3022091Y-575818D01*
X3098800Y-575818D01*
X3098800Y-613918D01*
G37*
G36*
X3118611Y-602487D02*
G01*
X3118611Y-337312D01*
X3383788Y-337312D01*
X3383788Y-602487D01*
G37*
G36*
X5517641Y-464057D02*
G01*
X5517641Y-43942D01*
X5937758Y-43942D01*
X5937758Y-464057D01*
G37*
G36*
X3155695Y-1051560D02*
G01*
X3155695Y-962405D01*
X3219704Y-962405D01*
X3219704Y-1051560D01*
G37*
G36*
X3155695Y-942594D02*
G01*
X3155695Y-853439D01*
X3219704Y-853439D01*
X3219704Y-942594D01*
G37*
G36*
X3596640Y-222504D02*
G01*
X3596640Y-158495D01*
X3685793Y-158495D01*
X3685793Y-222504D01*
G37*
G36*
X3705606Y-222504D02*
G01*
X3705606Y-158495D01*
X3794759Y-158495D01*
X3794759Y-222504D01*
G37*
G36*
X2791206Y-311404D02*
G01*
X2791206Y-247395D01*
X2880359Y-247395D01*
X2880359Y-311404D01*
G37*
G36*
X2682240Y-311404D02*
G01*
X2682240Y-247395D01*
X2771393Y-247395D01*
X2771393Y-311404D01*
G37*
G36*
X2791206Y-451104D02*
G01*
X2791206Y-387095D01*
X2880359Y-387095D01*
X2880359Y-451104D01*
G37*
G36*
X2682240Y-451104D02*
G01*
X2682240Y-387095D01*
X2771393Y-387095D01*
X2771393Y-451104D01*
G37*
G36*
X2791206Y-590804D02*
G01*
X2791206Y-526795D01*
X2880359Y-526795D01*
X2880359Y-590804D01*
G37*
G36*
X2682240Y-590804D02*
G01*
X2682240Y-526795D01*
X2771393Y-526795D01*
X2771393Y-590804D01*
G37*
G36*
X1276095Y-586994D02*
G01*
X1276095Y-497839D01*
X1340104Y-497839D01*
X1340104Y-586994D01*
G37*
G36*
X1276095Y-695960D02*
G01*
X1276095Y-606805D01*
X1340104Y-606805D01*
X1340104Y-695960D01*
G37*
G36*
X1593595Y-586994D02*
G01*
X1593595Y-497839D01*
X1657604Y-497839D01*
X1657604Y-586994D01*
G37*
G36*
X1593595Y-695960D02*
G01*
X1593595Y-606805D01*
X1657604Y-606805D01*
X1657604Y-695960D01*
G37*
G36*
X1733295Y-695960D02*
G01*
X1733295Y-606805D01*
X1797304Y-606805D01*
X1797304Y-695960D01*
G37*
G36*
X1733295Y-586994D02*
G01*
X1733295Y-497839D01*
X1797304Y-497839D01*
X1797304Y-586994D01*
G37*
G36*
X5763006Y-1035304D02*
G01*
X5763006Y-971295D01*
X5852159Y-971295D01*
X5852159Y-1035304D01*
G37*
G36*
X5654040Y-1035304D02*
G01*
X5654040Y-971295D01*
X5743193Y-971295D01*
X5743193Y-1035304D01*
G37*
G36*
X5654040Y-882904D02*
G01*
X5654040Y-818895D01*
X5743193Y-818895D01*
X5743193Y-882904D01*
G37*
G36*
X5763006Y-882904D02*
G01*
X5763006Y-818895D01*
X5852159Y-818895D01*
X5852159Y-882904D01*
G37*
G36*
X3667506Y-1022604D02*
G01*
X3667506Y-958595D01*
X3756659Y-958595D01*
X3756659Y-1022604D01*
G37*
G36*
X3558540Y-1022604D02*
G01*
X3558540Y-958595D01*
X3647693Y-958595D01*
X3647693Y-1022604D01*
G37*
G36*
X3644391Y-349504D02*
G01*
X3644391Y-285495D01*
X3711193Y-285495D01*
X3711193Y-349504D01*
G37*
G36*
X3731006Y-349504D02*
G01*
X3731006Y-285495D01*
X3797808Y-285495D01*
X3797808Y-349504D01*
G37*
G36*
X5193029Y-675131D02*
G01*
X5193029Y-544068D01*
X5373370Y-544068D01*
X5373370Y-675131D01*
G37*
G36*
X5193029Y-970787D02*
G01*
X5193029Y-839978D01*
X5373370Y-839978D01*
X5373370Y-970787D01*
G37*
G36*
X3695191Y-628904D02*
G01*
X3695191Y-564895D01*
X3761993Y-564895D01*
X3761993Y-628904D01*
G37*
G36*
X3781806Y-628904D02*
G01*
X3781806Y-564895D01*
X3848608Y-564895D01*
X3848608Y-628904D01*
G37*
G36*
X1415795Y-686307D02*
G01*
X1415795Y-619505D01*
X1479804Y-619505D01*
X1479804Y-686307D01*
G37*
G36*
X1415795Y-599694D02*
G01*
X1415795Y-532892D01*
X1479804Y-532892D01*
X1479804Y-599694D01*
G37*
G36*
X3308095Y-978407D02*
G01*
X3308095Y-911605D01*
X3372104Y-911605D01*
X3372104Y-978407D01*
G37*
G36*
X3308095Y-891794D02*
G01*
X3308095Y-824992D01*
X3372104Y-824992D01*
X3372104Y-891794D01*
G37*
G36*
X2755391Y-1327404D02*
G01*
X2755391Y-1263395D01*
X2822193Y-1263395D01*
X2822193Y-1327404D01*
G37*
G36*
X2842006Y-1327404D02*
G01*
X2842006Y-1263395D01*
X2908808Y-1263395D01*
X2908808Y-1327404D01*
G37*
G36*
X3654806Y-1162304D02*
G01*
X3654806Y-1098295D01*
X3721608Y-1098295D01*
X3721608Y-1162304D01*
G37*
G36*
X3568191Y-1162304D02*
G01*
X3568191Y-1098295D01*
X3634993Y-1098295D01*
X3634993Y-1162304D01*
G37*
G36*
X2892806Y-794004D02*
G01*
X2892806Y-729995D01*
X2959608Y-729995D01*
X2959608Y-794004D01*
G37*
G36*
X2806191Y-794004D02*
G01*
X2806191Y-729995D01*
X2872993Y-729995D01*
X2872993Y-794004D01*
G37*
G36*
X2885440Y-921004D02*
G01*
X2885440Y-856995D01*
X2974593Y-856995D01*
X2974593Y-921004D01*
G37*
G36*
X2994406Y-921004D02*
G01*
X2994406Y-856995D01*
X3083559Y-856995D01*
X3083559Y-921004D01*
G37*
G36*
X3794506Y-489204D02*
G01*
X3794506Y-425195D01*
X3883659Y-425195D01*
X3883659Y-489204D01*
G37*
G36*
X3685540Y-489204D02*
G01*
X3685540Y-425195D01*
X3774693Y-425195D01*
X3774693Y-489204D01*
G37*
G36*
X4314697Y-213613D02*
G01*
X4314697Y-65786D01*
X4438141Y-65786D01*
X4438141Y-213613D01*
G37*
G36*
X4121658Y-213613D02*
G01*
X4121658Y-65786D01*
X4245102Y-65786D01*
X4245102Y-213613D01*
G37*
G36*
X4680458Y-213613D02*
G01*
X4680458Y-65786D01*
X4803902Y-65786D01*
X4803902Y-213613D01*
G37*
G36*
X4873497Y-213613D02*
G01*
X4873497Y-65786D01*
X4996941Y-65786D01*
X4996941Y-213613D01*
G37*
G36*
X108204Y-628395D02*
G01*
X108204Y-108204D01*
X628395Y-108204D01*
X628395Y-628395D01*
G37*
G36*
X95504Y-1263395D02*
G01*
X95504Y-743204D01*
X615695Y-743204D01*
X615695Y-1263395D01*
G37*
D53*
G01*
X5600700Y-1239799D03*
G01*
X5350687Y-1239799D03*
G01*
X5100700Y-1239799D03*
G01*
X4850688Y-1239799D03*
G01*
X4600702Y-1239799D03*
G01*
X4350689Y-1239799D03*
M02*
