G04 Layer: BottomLayer*
G04 EasyEDA v6.4.25, 2021-11-19T22:14:56+01:00*
G04 fb237d5051ec4c31b6b5e7a524a6c443,10*
G04 Gerber Generator version 0.2*
G04 Scale: 100 percent, Rotated: No, Reflected: No *
G04 Dimensions in millimeters *
G04 leading zeros omitted , absolute positions ,4 integer and 5 decimal *
%FSLAX45Y45*%
%MOMM*%

%ADD11C,0.2000*%
%ADD12C,0.4000*%
%ADD13C,2.0000*%
%ADD14C,0.6500*%
%ADD15C,0.6096*%
%ADD32C,1.8000*%

%LPD*%
G36*
X5430164Y-1374089D02*
G01*
X5426151Y-1373276D01*
X5422798Y-1370939D01*
X5420614Y-1367434D01*
X5420004Y-1363370D01*
X5421071Y-1359408D01*
X5423611Y-1356156D01*
X5427218Y-1354226D01*
X5441391Y-1349857D01*
X5455310Y-1343710D01*
X5468366Y-1335938D01*
X5480659Y-1326438D01*
X5683402Y-1149045D01*
X5694426Y-1138174D01*
X5703874Y-1126236D01*
X5711799Y-1113282D01*
X5718149Y-1099464D01*
X5722721Y-1084986D01*
X5725566Y-1070051D01*
X5726633Y-1053795D01*
X5726633Y-940104D01*
X5725668Y-924610D01*
X5722924Y-909675D01*
X5718403Y-895146D01*
X5712155Y-881278D01*
X5704281Y-868273D01*
X5694934Y-856335D01*
X5684164Y-845566D01*
X5672226Y-836218D01*
X5659221Y-828344D01*
X5645353Y-822096D01*
X5630824Y-817575D01*
X5615889Y-814832D01*
X5600700Y-813917D01*
X5591962Y-814425D01*
X5587796Y-813816D01*
X5584190Y-811530D01*
X5581904Y-808024D01*
X5581192Y-803859D01*
X5582208Y-799795D01*
X5584850Y-796493D01*
X5587695Y-794105D01*
X5663844Y-717956D01*
X5665978Y-716330D01*
X5668416Y-715314D01*
X5675731Y-713333D01*
X5684672Y-709218D01*
X5692698Y-703580D01*
X5699658Y-696620D01*
X5705297Y-688594D01*
X5709412Y-679653D01*
X5711952Y-670204D01*
X5712815Y-660400D01*
X5711952Y-650595D01*
X5709412Y-641146D01*
X5705297Y-632206D01*
X5699658Y-624179D01*
X5692698Y-617220D01*
X5684672Y-611581D01*
X5675731Y-607466D01*
X5666282Y-604926D01*
X5656478Y-604062D01*
X5646674Y-604926D01*
X5637225Y-607466D01*
X5628284Y-611581D01*
X5620258Y-617220D01*
X5613298Y-624179D01*
X5607659Y-632206D01*
X5603544Y-641146D01*
X5601563Y-648462D01*
X5600547Y-650900D01*
X5598922Y-653034D01*
X5538825Y-713130D01*
X5535523Y-715314D01*
X5531662Y-716076D01*
X4477004Y-716076D01*
X4473143Y-715365D01*
X4469892Y-713181D01*
X4467656Y-709980D01*
X4466844Y-706170D01*
X4467504Y-702360D01*
X4469536Y-699008D01*
X4481220Y-690880D01*
X4485487Y-686562D01*
X4488789Y-684377D01*
X4492701Y-683615D01*
X4609592Y-683615D01*
X4617567Y-682752D01*
X4624679Y-680466D01*
X4631283Y-676656D01*
X4635754Y-672795D01*
X4672787Y-635762D01*
X4676089Y-633577D01*
X4680000Y-632815D01*
X5142992Y-632815D01*
X5150967Y-631952D01*
X5158079Y-629666D01*
X5164683Y-625856D01*
X5169154Y-621995D01*
X5219293Y-571855D01*
X5224373Y-565607D01*
X5227777Y-558952D01*
X5229758Y-551586D01*
X5230215Y-545693D01*
X5230215Y-469392D01*
X5230977Y-465480D01*
X5233162Y-462178D01*
X5240070Y-455320D01*
X5245709Y-447293D01*
X5249824Y-438353D01*
X5252364Y-428904D01*
X5253228Y-419100D01*
X5252364Y-409295D01*
X5249824Y-399846D01*
X5245709Y-390906D01*
X5240070Y-382879D01*
X5233111Y-375920D01*
X5225084Y-370281D01*
X5216144Y-366166D01*
X5206695Y-363626D01*
X5196890Y-362762D01*
X5187086Y-363626D01*
X5177637Y-366166D01*
X5168696Y-370281D01*
X5160670Y-375920D01*
X5153710Y-382879D01*
X5148072Y-390906D01*
X5143957Y-399846D01*
X5141417Y-409295D01*
X5140553Y-419100D01*
X5141417Y-428904D01*
X5143957Y-438353D01*
X5148072Y-447293D01*
X5153710Y-455320D01*
X5155438Y-456996D01*
X5157622Y-460298D01*
X5158384Y-464210D01*
X5158384Y-526999D01*
X5157622Y-530910D01*
X5155438Y-534212D01*
X5131612Y-558038D01*
X5128310Y-560222D01*
X5124399Y-560984D01*
X4661408Y-560984D01*
X4653432Y-561848D01*
X4646320Y-564134D01*
X4639716Y-567944D01*
X4635246Y-571804D01*
X4598212Y-608838D01*
X4594910Y-611022D01*
X4590999Y-611784D01*
X4492701Y-611784D01*
X4488789Y-611022D01*
X4485487Y-608838D01*
X4481220Y-604520D01*
X4472787Y-598627D01*
X4469841Y-595376D01*
X4468520Y-591210D01*
X4469079Y-586841D01*
X4471466Y-583133D01*
X4596587Y-457962D01*
X4599889Y-455777D01*
X4603800Y-455015D01*
X4641189Y-455015D01*
X4645101Y-455777D01*
X4648403Y-457962D01*
X4652670Y-462280D01*
X4660696Y-467918D01*
X4669637Y-472033D01*
X4679086Y-474573D01*
X4688890Y-475437D01*
X4698695Y-474573D01*
X4708144Y-472033D01*
X4717084Y-467918D01*
X4725111Y-462280D01*
X4732070Y-455320D01*
X4737709Y-447293D01*
X4741824Y-438353D01*
X4744364Y-428904D01*
X4745228Y-419100D01*
X4744364Y-409295D01*
X4741824Y-399846D01*
X4737709Y-390906D01*
X4732070Y-382879D01*
X4725111Y-375920D01*
X4717084Y-370281D01*
X4708144Y-366166D01*
X4698695Y-363626D01*
X4688890Y-362762D01*
X4679086Y-363626D01*
X4669637Y-366166D01*
X4660696Y-370281D01*
X4652670Y-375920D01*
X4648403Y-380238D01*
X4645101Y-382422D01*
X4641189Y-383184D01*
X4585208Y-383184D01*
X4577232Y-384048D01*
X4570120Y-386334D01*
X4563516Y-390144D01*
X4559046Y-394004D01*
X4409338Y-543661D01*
X4406036Y-545896D01*
X4402175Y-546658D01*
X4398264Y-545896D01*
X4394962Y-543661D01*
X4392320Y-541020D01*
X4384294Y-535381D01*
X4375353Y-531266D01*
X4365904Y-528726D01*
X4356100Y-527862D01*
X4346295Y-528726D01*
X4336846Y-531266D01*
X4327906Y-535381D01*
X4319879Y-541020D01*
X4312920Y-547979D01*
X4307281Y-556006D01*
X4303166Y-564946D01*
X4300626Y-574395D01*
X4299762Y-584200D01*
X4300626Y-594004D01*
X4303166Y-603453D01*
X4307281Y-612394D01*
X4312920Y-620420D01*
X4319879Y-627380D01*
X4327906Y-633018D01*
X4336846Y-637133D01*
X4346295Y-639673D01*
X4356100Y-640537D01*
X4365904Y-639673D01*
X4375912Y-637032D01*
X4379772Y-636727D01*
X4383430Y-637946D01*
X4386427Y-640435D01*
X4388256Y-643839D01*
X4389526Y-657504D01*
X4392066Y-666953D01*
X4396181Y-675894D01*
X4401820Y-683920D01*
X4408779Y-690880D01*
X4411675Y-692861D01*
X4414520Y-695960D01*
X4415891Y-699973D01*
X4415536Y-704189D01*
X4413504Y-707847D01*
X4410100Y-710387D01*
X4404106Y-713181D01*
X4396079Y-718820D01*
X4389120Y-725779D01*
X4383481Y-733806D01*
X4379366Y-742746D01*
X4376826Y-752195D01*
X4375962Y-762000D01*
X4376826Y-771804D01*
X4379366Y-781253D01*
X4383481Y-790194D01*
X4389120Y-798220D01*
X4396079Y-805180D01*
X4404106Y-810818D01*
X4413046Y-814933D01*
X4422495Y-817473D01*
X4432300Y-818337D01*
X4442104Y-817473D01*
X4451553Y-814933D01*
X4460494Y-810818D01*
X4464761Y-808380D01*
X4467809Y-807923D01*
X4568901Y-807923D01*
X4572965Y-808786D01*
X4576368Y-811174D01*
X4578502Y-814730D01*
X4579010Y-818896D01*
X4577842Y-822858D01*
X4575149Y-826058D01*
X4571441Y-827887D01*
X4564888Y-829564D01*
X4551375Y-834948D01*
X4538624Y-841959D01*
X4526838Y-850493D01*
X4516221Y-860450D01*
X4506925Y-871677D01*
X4499152Y-883970D01*
X4492955Y-897128D01*
X4488434Y-910996D01*
X4485741Y-925271D01*
X4484827Y-939800D01*
X4485792Y-954684D01*
X4488434Y-968603D01*
X4492955Y-982471D01*
X4499152Y-995629D01*
X4506925Y-1007922D01*
X4516221Y-1019149D01*
X4526838Y-1029106D01*
X4538624Y-1037640D01*
X4551375Y-1044651D01*
X4564888Y-1050036D01*
X4579010Y-1053642D01*
X4593437Y-1055471D01*
X4607966Y-1055471D01*
X4622393Y-1053642D01*
X4636516Y-1050036D01*
X4650028Y-1044651D01*
X4662779Y-1037640D01*
X4674565Y-1029106D01*
X4685182Y-1019149D01*
X4694478Y-1007922D01*
X4702251Y-995629D01*
X4708448Y-982471D01*
X4712970Y-968603D01*
X4715713Y-954074D01*
X4717237Y-950366D01*
X4720031Y-947572D01*
X4723688Y-946048D01*
X4727702Y-946048D01*
X4731359Y-947572D01*
X4734204Y-950366D01*
X4735677Y-954074D01*
X4738471Y-968603D01*
X4742942Y-982471D01*
X4749139Y-995629D01*
X4756962Y-1007922D01*
X4766208Y-1019149D01*
X4776825Y-1029106D01*
X4788611Y-1037640D01*
X4801362Y-1044651D01*
X4814874Y-1050036D01*
X4828997Y-1053642D01*
X4843424Y-1055471D01*
X4857953Y-1055471D01*
X4872431Y-1053642D01*
X4886502Y-1050036D01*
X4900066Y-1044651D01*
X4912817Y-1037640D01*
X4924552Y-1029106D01*
X4935169Y-1019149D01*
X4944465Y-1007922D01*
X4952238Y-995629D01*
X4958435Y-982471D01*
X4962956Y-968603D01*
X4965700Y-954074D01*
X4967224Y-950366D01*
X4970018Y-947572D01*
X4973726Y-946048D01*
X4977688Y-946048D01*
X4981397Y-947572D01*
X4984191Y-950366D01*
X4985664Y-954074D01*
X4988458Y-968603D01*
X4992928Y-982471D01*
X4999126Y-995629D01*
X5006949Y-1007922D01*
X5016246Y-1019149D01*
X5026812Y-1029106D01*
X5038598Y-1037640D01*
X5051348Y-1044651D01*
X5064912Y-1050036D01*
X5078984Y-1053642D01*
X5093411Y-1055471D01*
X5107990Y-1055471D01*
X5122418Y-1053642D01*
X5136489Y-1050036D01*
X5150053Y-1044651D01*
X5162804Y-1037640D01*
X5174589Y-1029106D01*
X5185156Y-1019149D01*
X5194452Y-1007922D01*
X5202275Y-995629D01*
X5208473Y-982471D01*
X5212943Y-968603D01*
X5215737Y-954074D01*
X5217210Y-950366D01*
X5220004Y-947572D01*
X5223713Y-946048D01*
X5227675Y-946048D01*
X5231384Y-947572D01*
X5234178Y-950366D01*
X5235702Y-954074D01*
X5238445Y-968603D01*
X5242966Y-982471D01*
X5249164Y-995629D01*
X5256936Y-1007922D01*
X5266232Y-1019149D01*
X5276850Y-1029106D01*
X5288584Y-1037640D01*
X5301335Y-1044651D01*
X5314899Y-1050036D01*
X5328970Y-1053642D01*
X5343448Y-1055471D01*
X5357977Y-1055471D01*
X5372404Y-1053642D01*
X5384342Y-1050594D01*
X5388813Y-1050442D01*
X5392928Y-1052271D01*
X5395823Y-1055674D01*
X5396992Y-1060043D01*
X5396179Y-1064412D01*
X5393537Y-1068070D01*
X5353050Y-1103477D01*
X5349951Y-1105357D01*
X5346395Y-1106017D01*
X3744976Y-1106017D01*
X3741775Y-1105458D01*
X3738930Y-1103985D01*
X3736644Y-1101648D01*
X3731361Y-1094079D01*
X3724401Y-1087120D01*
X3716375Y-1081481D01*
X3707434Y-1077366D01*
X3697986Y-1074826D01*
X3688181Y-1073962D01*
X3686657Y-1074064D01*
X3682492Y-1073607D01*
X3678885Y-1071473D01*
X3676446Y-1068070D01*
X3675583Y-1063955D01*
X3675583Y-957783D01*
X3676345Y-953871D01*
X3678580Y-950569D01*
X3681882Y-948385D01*
X3685743Y-947623D01*
X3825290Y-947623D01*
X3828338Y-948080D01*
X3832606Y-950518D01*
X3841546Y-954633D01*
X3850995Y-957173D01*
X3860800Y-958037D01*
X3870604Y-957173D01*
X3880053Y-954633D01*
X3888994Y-950518D01*
X3897020Y-944880D01*
X3903979Y-937920D01*
X3909618Y-929894D01*
X3913733Y-920953D01*
X3916273Y-911504D01*
X3917137Y-901700D01*
X3916273Y-891895D01*
X3913733Y-882446D01*
X3909618Y-873506D01*
X3903979Y-865479D01*
X3897020Y-858519D01*
X3888994Y-852881D01*
X3880053Y-848766D01*
X3870604Y-846226D01*
X3860800Y-845362D01*
X3850995Y-846226D01*
X3841546Y-848766D01*
X3832606Y-852881D01*
X3828338Y-855319D01*
X3825290Y-855776D01*
X3685743Y-855776D01*
X3681882Y-855014D01*
X3678580Y-852830D01*
X3676345Y-849528D01*
X3675583Y-845616D01*
X3675583Y-721868D01*
X3676345Y-717956D01*
X3678580Y-714705D01*
X3681882Y-712470D01*
X3685743Y-711708D01*
X3804869Y-711708D01*
X3808780Y-712470D01*
X3812082Y-714705D01*
X3981043Y-883666D01*
X3982669Y-885799D01*
X3983685Y-888237D01*
X3985666Y-895553D01*
X3989781Y-904494D01*
X3995420Y-912520D01*
X4002379Y-919480D01*
X4010406Y-925118D01*
X4019346Y-929233D01*
X4028795Y-931773D01*
X4038600Y-932637D01*
X4048404Y-931773D01*
X4057853Y-929233D01*
X4066794Y-925118D01*
X4074820Y-919480D01*
X4081779Y-912520D01*
X4087418Y-904494D01*
X4091533Y-895553D01*
X4094073Y-886104D01*
X4094937Y-876300D01*
X4094073Y-866495D01*
X4091533Y-857046D01*
X4087418Y-848106D01*
X4081779Y-840079D01*
X4074820Y-833119D01*
X4066794Y-827481D01*
X4057853Y-823366D01*
X4050537Y-821385D01*
X4048099Y-820369D01*
X4045965Y-818743D01*
X3950004Y-722782D01*
X3947668Y-719175D01*
X3947058Y-714908D01*
X3948277Y-710793D01*
X3951071Y-707491D01*
X3954119Y-705205D01*
X3957015Y-703681D01*
X3960266Y-703173D01*
X4006494Y-703173D01*
X4008170Y-702462D01*
X4033875Y-676757D01*
X4034586Y-675081D01*
X4032910Y-36118D01*
X4033723Y-32207D01*
X4035907Y-28905D01*
X4039209Y-26670D01*
X4043070Y-25908D01*
X5963920Y-25908D01*
X5967831Y-26670D01*
X5971133Y-28905D01*
X5973318Y-32156D01*
X5974080Y-36068D01*
X5974080Y-1363929D01*
X5973318Y-1367840D01*
X5971133Y-1371142D01*
X5967831Y-1373327D01*
X5963920Y-1374089D01*
G37*

%LPC*%
G36*
X4299356Y-1043533D02*
G01*
X4299356Y-991158D01*
X4247032Y-991158D01*
X4249166Y-995629D01*
X4256938Y-1007922D01*
X4266234Y-1019149D01*
X4276852Y-1029106D01*
X4288586Y-1037640D01*
G37*
G36*
X4402074Y-1043533D02*
G01*
X4412792Y-1037640D01*
X4424578Y-1029106D01*
X4435195Y-1019149D01*
X4444441Y-1007922D01*
X4452264Y-995629D01*
X4454347Y-991158D01*
X4402074Y-991158D01*
G37*
G36*
X4247032Y-888441D02*
G01*
X4299356Y-888441D01*
X4299356Y-836066D01*
X4288586Y-841959D01*
X4276852Y-850493D01*
X4266234Y-860450D01*
X4256938Y-871677D01*
X4249166Y-883970D01*
G37*
G36*
X4402074Y-888441D02*
G01*
X4454347Y-888441D01*
X4452264Y-883970D01*
X4444441Y-871677D01*
X4435195Y-860450D01*
X4424578Y-850493D01*
X4412792Y-841959D01*
X4402074Y-836066D01*
G37*

%LPD*%
G36*
X-163931Y-1374089D02*
G01*
X-167843Y-1373327D01*
X-171094Y-1371142D01*
X-173329Y-1367840D01*
X-174091Y-1363929D01*
X-174091Y-36068D01*
X-173329Y-32156D01*
X-171094Y-28905D01*
X-167843Y-26670D01*
X-163931Y-25908D01*
X3971391Y-25908D01*
X3975303Y-26670D01*
X3978605Y-28905D01*
X3984802Y-35102D01*
X3987037Y-38404D01*
X3987800Y-42316D01*
X3987800Y-374345D01*
X3987037Y-378206D01*
X3984802Y-381508D01*
X3981551Y-383692D01*
X3977640Y-384505D01*
X3973728Y-383692D01*
X3970477Y-381508D01*
X3931818Y-342900D01*
X3926179Y-337566D01*
X3920337Y-332689D01*
X3914190Y-328168D01*
X3907840Y-324053D01*
X3901186Y-320294D01*
X3894378Y-316992D01*
X3887317Y-314096D01*
X3880154Y-311607D01*
X3872839Y-309575D01*
X3865372Y-307949D01*
X3857853Y-306832D01*
X3850284Y-306120D01*
X3842512Y-305917D01*
X3332937Y-305917D01*
X3329076Y-305104D01*
X3325774Y-302920D01*
X3122422Y-99568D01*
X3116732Y-94234D01*
X3110890Y-89357D01*
X3104794Y-84836D01*
X3098393Y-80721D01*
X3091789Y-76962D01*
X3084931Y-73660D01*
X3077921Y-70764D01*
X3070707Y-68275D01*
X3063392Y-66243D01*
X3055975Y-64617D01*
X3048457Y-63500D01*
X3040888Y-62788D01*
X3033115Y-62534D01*
X1108456Y-62534D01*
X1106119Y-62280D01*
X1101242Y-60147D01*
X1091793Y-57251D01*
X1081989Y-55981D01*
X1072083Y-56388D01*
X1062431Y-58470D01*
X1054100Y-61823D01*
X1050290Y-62534D01*
X1039774Y-62534D01*
X1037437Y-62280D01*
X1032510Y-60096D01*
X1023061Y-57200D01*
X1013206Y-55981D01*
X1003350Y-56388D01*
X993648Y-58470D01*
X983996Y-62331D01*
X981151Y-63703D01*
X978204Y-64617D01*
X975106Y-64566D01*
X972210Y-63601D01*
X962558Y-58775D01*
X953109Y-55880D01*
X943305Y-54610D01*
X933399Y-55016D01*
X923747Y-57099D01*
X914552Y-60807D01*
X906119Y-65989D01*
X898652Y-72542D01*
X892454Y-80264D01*
X887628Y-88900D01*
X884326Y-98196D01*
X882650Y-108000D01*
X882650Y-117856D01*
X884326Y-127660D01*
X887628Y-136956D01*
X889812Y-140868D01*
X891032Y-144729D01*
X890676Y-148742D01*
X887374Y-159715D01*
X885088Y-164236D01*
X881786Y-173583D01*
X880110Y-183337D01*
X880110Y-193243D01*
X881786Y-202996D01*
X885088Y-212344D01*
X886409Y-214680D01*
X892200Y-233121D01*
X898448Y-246989D01*
X906322Y-259994D01*
X915669Y-271932D01*
X926439Y-282702D01*
X938377Y-292049D01*
X951382Y-299923D01*
X965250Y-306171D01*
X979779Y-310692D01*
X994714Y-313436D01*
X1010208Y-314350D01*
X2976880Y-314350D01*
X2980791Y-315163D01*
X2984093Y-317347D01*
X3187446Y-520700D01*
X3193135Y-526034D01*
X3201314Y-532638D01*
X3204108Y-535787D01*
X3205429Y-539800D01*
X3204972Y-544017D01*
X3202838Y-547624D01*
X3199434Y-550113D01*
X3195320Y-550976D01*
X3080613Y-550976D01*
X3076752Y-550214D01*
X3073450Y-548030D01*
X3013202Y-487781D01*
X3011576Y-485698D01*
X3010560Y-483209D01*
X3008630Y-475945D01*
X3004464Y-467055D01*
X2998825Y-458978D01*
X2991916Y-452069D01*
X2983839Y-446430D01*
X2974949Y-442264D01*
X2965450Y-439724D01*
X2955696Y-438861D01*
X2945892Y-439724D01*
X2936392Y-442264D01*
X2927502Y-446430D01*
X2919425Y-452069D01*
X2912516Y-458978D01*
X2906877Y-467055D01*
X2902712Y-475945D01*
X2900172Y-485444D01*
X2899308Y-495249D01*
X2900172Y-505002D01*
X2902712Y-514502D01*
X2905252Y-519938D01*
X2906217Y-524001D01*
X2905455Y-528116D01*
X2903118Y-531571D01*
X2899562Y-533755D01*
X2895447Y-534365D01*
X2883204Y-530860D01*
X2877312Y-530402D01*
X1495501Y-530402D01*
X1491589Y-529640D01*
X1488287Y-527456D01*
X1484020Y-523138D01*
X1475994Y-517499D01*
X1467053Y-513384D01*
X1457604Y-510844D01*
X1447800Y-509981D01*
X1437995Y-510844D01*
X1428546Y-513384D01*
X1419606Y-517499D01*
X1411579Y-523138D01*
X1404620Y-530098D01*
X1398981Y-538124D01*
X1394866Y-547065D01*
X1392326Y-556514D01*
X1391462Y-566318D01*
X1392326Y-576122D01*
X1394866Y-585571D01*
X1398981Y-594512D01*
X1404620Y-602538D01*
X1411579Y-609498D01*
X1419606Y-615137D01*
X1428546Y-619252D01*
X1437995Y-621792D01*
X1447800Y-622655D01*
X1457604Y-621792D01*
X1467053Y-619252D01*
X1475994Y-615137D01*
X1484020Y-609498D01*
X1488287Y-605180D01*
X1491589Y-602996D01*
X1495501Y-602234D01*
X2858617Y-602234D01*
X2862529Y-602996D01*
X2865831Y-605180D01*
X2933344Y-672693D01*
X2939592Y-677773D01*
X2946247Y-681177D01*
X2953613Y-683158D01*
X2959506Y-683615D01*
X3079699Y-683615D01*
X3083610Y-684377D01*
X3086912Y-686562D01*
X3179267Y-778916D01*
X3181604Y-782624D01*
X3183026Y-797204D01*
X3185566Y-806653D01*
X3189681Y-815594D01*
X3195320Y-823620D01*
X3202279Y-830580D01*
X3210306Y-836218D01*
X3219246Y-840333D01*
X3228695Y-842873D01*
X3238500Y-843737D01*
X3248304Y-842873D01*
X3257753Y-840333D01*
X3266694Y-836218D01*
X3274720Y-830580D01*
X3281679Y-823620D01*
X3287318Y-815594D01*
X3291433Y-806653D01*
X3293973Y-797204D01*
X3294837Y-787400D01*
X3293973Y-777595D01*
X3291433Y-768146D01*
X3287318Y-759206D01*
X3281679Y-751179D01*
X3274720Y-744220D01*
X3266694Y-738581D01*
X3257753Y-734466D01*
X3248304Y-731926D01*
X3238093Y-731062D01*
X3233724Y-730504D01*
X3230016Y-728167D01*
X3162046Y-660146D01*
X3159810Y-656844D01*
X3159048Y-652983D01*
X3159810Y-649071D01*
X3162046Y-645769D01*
X3165348Y-643585D01*
X3169208Y-642823D01*
X3628390Y-642823D01*
X3632301Y-643585D01*
X3635552Y-645769D01*
X3637787Y-649071D01*
X3638550Y-652983D01*
X3638550Y-845616D01*
X3637787Y-849528D01*
X3635552Y-852830D01*
X3632301Y-855014D01*
X3628390Y-855776D01*
X3591915Y-855776D01*
X3588054Y-855014D01*
X3584752Y-852830D01*
X3473856Y-741934D01*
X3472230Y-739800D01*
X3471214Y-737362D01*
X3469233Y-730046D01*
X3465118Y-721106D01*
X3459479Y-713079D01*
X3452520Y-706120D01*
X3444494Y-700481D01*
X3435553Y-696366D01*
X3426104Y-693826D01*
X3416300Y-692962D01*
X3406495Y-693826D01*
X3397046Y-696366D01*
X3388106Y-700481D01*
X3380079Y-706120D01*
X3373120Y-713079D01*
X3367481Y-721106D01*
X3363366Y-730046D01*
X3360826Y-739495D01*
X3359962Y-749300D01*
X3360826Y-759104D01*
X3363366Y-768553D01*
X3367481Y-777494D01*
X3373120Y-785520D01*
X3380079Y-792480D01*
X3388106Y-798118D01*
X3397046Y-802233D01*
X3404362Y-804214D01*
X3406800Y-805230D01*
X3408934Y-806856D01*
X3537508Y-935380D01*
X3544570Y-940714D01*
X3552139Y-944473D01*
X3560267Y-946759D01*
X3569157Y-947623D01*
X3628390Y-947623D01*
X3632301Y-948385D01*
X3635552Y-950569D01*
X3637787Y-953871D01*
X3638550Y-957783D01*
X3638550Y-1095857D01*
X3637787Y-1099718D01*
X3635552Y-1103020D01*
X3632301Y-1105204D01*
X3628390Y-1106017D01*
X2697886Y-1106017D01*
X2693974Y-1105204D01*
X2690723Y-1103020D01*
X2601620Y-1014120D01*
X2596083Y-1008887D01*
X2590088Y-1003909D01*
X2584094Y-999490D01*
X2577592Y-995324D01*
X2571089Y-991666D01*
X2564130Y-988263D01*
X2557221Y-985418D01*
X2549906Y-982878D01*
X2542692Y-980897D01*
X2535123Y-979271D01*
X2527757Y-978153D01*
X2520035Y-977442D01*
X2512415Y-977239D01*
X2457602Y-977239D01*
X2454351Y-976680D01*
X2451455Y-975156D01*
X2449169Y-972718D01*
X2445156Y-966825D01*
X2438349Y-959662D01*
X2430373Y-953820D01*
X2421534Y-949350D01*
X2412085Y-946454D01*
X2402230Y-945184D01*
X2392375Y-945591D01*
X2382672Y-947674D01*
X2373477Y-951382D01*
X2365044Y-956564D01*
X2357628Y-963117D01*
X2348484Y-974750D01*
X2345385Y-976579D01*
X2341880Y-977239D01*
X2334209Y-977239D01*
X2331059Y-976680D01*
X2328164Y-975207D01*
X2322576Y-971092D01*
X2313736Y-966622D01*
X2304288Y-963726D01*
X2294432Y-962456D01*
X2284577Y-962863D01*
X2274874Y-964946D01*
X2265680Y-968654D01*
X2257247Y-973836D01*
X2249830Y-980338D01*
X2242870Y-989126D01*
X2240178Y-991514D01*
X2226919Y-999540D01*
X2214981Y-1008887D01*
X2204212Y-1019657D01*
X2194864Y-1031595D01*
X2186990Y-1044600D01*
X2180742Y-1058468D01*
X2176221Y-1072997D01*
X2173478Y-1087932D01*
X2172563Y-1103122D01*
X2173478Y-1118311D01*
X2176221Y-1133246D01*
X2180742Y-1147775D01*
X2186990Y-1161643D01*
X2194864Y-1174648D01*
X2204212Y-1186586D01*
X2214981Y-1197356D01*
X2225802Y-1205839D01*
X2227783Y-1207922D01*
X2229104Y-1210462D01*
X2231898Y-1218387D01*
X2236774Y-1227023D01*
X2242972Y-1234744D01*
X2250389Y-1241247D01*
X2258822Y-1246428D01*
X2268016Y-1250137D01*
X2277719Y-1252220D01*
X2287574Y-1252626D01*
X2297430Y-1251407D01*
X2306878Y-1248511D01*
X2315718Y-1244041D01*
X2323693Y-1238148D01*
X2329434Y-1232154D01*
X2332786Y-1229868D01*
X2336749Y-1229055D01*
X2344572Y-1229055D01*
X2348992Y-1230020D01*
X2352497Y-1232814D01*
X2355799Y-1236929D01*
X2363266Y-1243482D01*
X2371699Y-1248664D01*
X2380894Y-1252372D01*
X2390546Y-1254455D01*
X2400452Y-1254861D01*
X2410256Y-1253591D01*
X2419705Y-1250696D01*
X2428544Y-1246225D01*
X2436520Y-1240383D01*
X2444191Y-1232204D01*
X2447594Y-1229868D01*
X2451608Y-1229055D01*
X2456281Y-1229055D01*
X2460193Y-1229817D01*
X2463444Y-1232001D01*
X2552547Y-1320901D01*
X2558084Y-1326134D01*
X2564079Y-1331112D01*
X2570073Y-1335532D01*
X2576576Y-1339697D01*
X2583078Y-1343355D01*
X2590038Y-1346758D01*
X2596946Y-1349603D01*
X2604262Y-1352143D01*
X2611475Y-1354124D01*
X2615133Y-1356055D01*
X2617774Y-1359255D01*
X2618892Y-1363218D01*
X2618333Y-1367332D01*
X2616200Y-1370888D01*
X2612796Y-1373276D01*
X2608732Y-1374089D01*
G37*

%LPD*%
D11*
X4356100Y-584200D02*
G01*
X4419600Y-584200D01*
X4584700Y-419100D01*
X4688890Y-419100D01*
X4445000Y-647700D02*
G01*
X4610100Y-647700D01*
X4660900Y-596900D01*
X5143500Y-596900D01*
X5194300Y-546100D01*
X5194300Y-421690D01*
X5196890Y-419100D01*
D12*
X4610100Y-762000D02*
G01*
X5554878Y-762000D01*
X5656478Y-660400D01*
X4432300Y-762000D02*
G01*
X4610100Y-762000D01*
X3619500Y-596900D02*
G01*
X3759200Y-596900D01*
X4038600Y-876300D01*
D13*
X5600700Y-939800D02*
G01*
X5600700Y-1054100D01*
X5397500Y-1231900D01*
X3746500Y-1231900D01*
X2298445Y-1103121D02*
G01*
X2512568Y-1103121D01*
X2641600Y-1231900D01*
X3746500Y-1231900D01*
D12*
X3416300Y-749300D02*
G01*
X3568700Y-901700D01*
X3860800Y-901700D01*
D11*
X1447800Y-566315D02*
G01*
X2877715Y-566315D01*
X2959100Y-647700D01*
X3098800Y-647700D01*
X3238500Y-787400D01*
D13*
X1009904Y-188465D02*
G01*
X3033265Y-188465D01*
X3276600Y-431800D01*
X3842689Y-431800D01*
X4325289Y-914400D01*
D12*
X2955797Y-495300D02*
G01*
X3057397Y-596900D01*
X3619500Y-596900D01*
D32*
G01*
X5600700Y-939800D03*
G01*
X5350687Y-939800D03*
G01*
X5100700Y-939800D03*
G01*
X4850688Y-939800D03*
G01*
X4600702Y-939800D03*
G01*
X4350689Y-939800D03*
D14*
G01*
X3606800Y-88900D03*
G01*
X1079500Y-114300D03*
G01*
X1079500Y-190500D03*
G01*
X1009904Y-188442D03*
G01*
X938276Y-188290D03*
G01*
X1010742Y-114274D03*
G01*
X940815Y-112928D03*
G01*
X2291968Y-1020775D03*
G01*
X2298420Y-1102995D03*
G01*
X2285111Y-1194333D03*
G01*
X2397963Y-1196543D03*
G01*
X2413000Y-1104900D03*
G01*
X2399766Y-1003503D03*
G01*
X2357424Y-1060399D03*
G01*
X2347899Y-1148664D03*
D15*
G01*
X2955670Y-495223D03*
G01*
X4038600Y-876300D03*
G01*
X5205577Y-1168171D03*
G01*
X5200497Y-1266215D03*
G01*
X5150205Y-1215923D03*
G01*
X5261381Y-1224432D03*
G01*
X5384800Y-355600D03*
G01*
X5918200Y-1028700D03*
G01*
X5067300Y-685800D03*
G01*
X4076700Y-279400D03*
G01*
X4127500Y-1003300D03*
G01*
X5854700Y-1257300D03*
G01*
X3098800Y-774700D03*
G01*
X1154861Y-934720D03*
G01*
X1905000Y-444500D03*
G01*
X3157626Y-527126D03*
G01*
X2365984Y-677849D03*
G01*
X2058644Y-1118946D03*
G01*
X1447800Y-566318D03*
G01*
X3238500Y-787400D03*
G01*
X3898900Y-88900D03*
D14*
G01*
X3517900Y-254000D03*
D15*
G01*
X2959100Y-1016000D03*
G01*
X3352800Y-1054100D03*
G01*
X3416300Y-749300D03*
G01*
X3860800Y-901700D03*
G01*
X3688181Y-1130300D03*
G01*
X1270000Y-1244600D03*
G01*
X749300Y-711200D03*
G01*
X2489200Y-876300D03*
G01*
X4737100Y-673100D03*
G01*
X5461000Y-609600D03*
G01*
X4688890Y-419100D03*
G01*
X5196890Y-419100D03*
G01*
X5656478Y-660400D03*
G01*
X4432300Y-762000D03*
G01*
X4445000Y-647700D03*
G01*
X4356100Y-584200D03*
G01*
X4597400Y-558800D03*
G01*
X4241800Y-406400D03*
M02*
