M48
METRIC,LZ,000.000
;FILE_FORMAT=3:3
;TYPE=PLATED
;Layer: Drill PTH
;EasyEDA v6.4.25, 2021-11-19T22:14:56+01:00
;fb237d5051ec4c31b6b5e7a524a6c443,10
;Gerber Generator version 0.2
;Holesize 1 = 0.305 mm
T01C0.305
;Holesize 2 = 1.000 mm
T02C1.000
%
G05
G90
T01
X036068Y-000889
X010795Y-001143
X010795Y-001905
X010099Y-001884
X009383Y-001883
X010107Y-001143
X009408Y-001129
X022920Y-010208
X022984Y-011030
X022851Y-011943
X023980Y-011965
X024130Y-011049
X023998Y-010035
X023574Y-010604
X023479Y-011487
X029557Y-004952
X040386Y-008763
X052056Y-011682
X052005Y-012662
X051502Y-012159
X052614Y-012244
X053848Y-003556
X059182Y-010287
X050673Y-006858
X040767Y-002794
X041275Y-010033
X058547Y-012573
X030988Y-007747
X011549Y-009347
X019050Y-004445
X031576Y-005271
X023660Y-006778
X020586Y-011189
X014478Y-005663
X032385Y-007874
X038989Y-000889
X035179Y-002540
X029591Y-010160
X033528Y-010541
X034163Y-007493
X038608Y-009017
X036882Y-011303
X012700Y-012446
X007493Y-007112
X024892Y-008763
X047371Y-006731
X054610Y-006096
X046889Y-004191
X051969Y-004191
X056565Y-006604
X044323Y-007620
X044450Y-006477
X043561Y-005842
X045974Y-005588
X042418Y-004064
T02
X056007Y-009398
X053507Y-009398
X051007Y-009398
X048507Y-009398
X046007Y-009398
X043507Y-009398
M30
