G04 Layer: TopSilkLayer*
G04 EasyEDA v6.4.25, 2021-11-19T22:14:56+01:00*
G04 fb237d5051ec4c31b6b5e7a524a6c443,10*
G04 Gerber Generator version 0.2*
G04 Scale: 100 percent, Rotated: No, Reflected: No *
G04 Dimensions in millimeters *
G04 leading zeros omitted , absolute positions ,4 integer and 5 decimal *
%FSLAX45Y45*%
%MOMM*%

%ADD10C,0.2540*%
%ADD33C,0.1520*%
%ADD34C,0.1524*%
%ADD35C,0.1999*%
%ADD36C,0.1500*%
%ADD37C,0.1600*%

%LPD*%
D37*
X-151637Y-1309878D02*
G01*
X-56134Y-1346200D01*
X-151637Y-1309878D02*
G01*
X-56134Y-1273555D01*
X-88137Y-1332484D02*
G01*
X-88137Y-1287018D01*
X-151637Y-1243584D02*
G01*
X-147065Y-1239012D01*
X-151637Y-1234439D01*
X-156210Y-1239012D01*
X-151637Y-1243584D01*
X-119887Y-1239012D02*
G01*
X-56134Y-1239012D01*
X-151637Y-1204468D02*
G01*
X-56134Y-1204468D01*
X-106171Y-1204468D02*
G01*
X-115315Y-1195323D01*
X-119887Y-1186179D01*
X-119887Y-1172463D01*
X-115315Y-1163573D01*
X-106171Y-1154429D01*
X-92710Y-1149857D01*
X-83565Y-1149857D01*
X-69850Y-1154429D01*
X-60705Y-1163573D01*
X-56134Y-1172463D01*
X-56134Y-1186179D01*
X-60705Y-1195323D01*
X-69850Y-1204468D01*
X-119887Y-1097026D02*
G01*
X-115315Y-1106170D01*
X-106171Y-1115313D01*
X-92710Y-1119886D01*
X-83565Y-1119886D01*
X-69850Y-1115313D01*
X-60705Y-1106170D01*
X-56134Y-1097026D01*
X-56134Y-1083563D01*
X-60705Y-1074420D01*
X-69850Y-1065276D01*
X-83565Y-1060704D01*
X-92710Y-1060704D01*
X-106171Y-1065276D01*
X-115315Y-1074420D01*
X-119887Y-1083563D01*
X-119887Y-1097026D01*
X-151637Y-951737D02*
G01*
X-151637Y-901700D01*
X-115315Y-928878D01*
X-115315Y-915415D01*
X-110744Y-906271D01*
X-106171Y-901700D01*
X-92710Y-897128D01*
X-83565Y-897128D01*
X-69850Y-901700D01*
X-60705Y-910844D01*
X-56134Y-924305D01*
X-56134Y-938021D01*
X-60705Y-951737D01*
X-65278Y-956310D01*
X-74421Y-960628D01*
X-133604Y-867155D02*
G01*
X-138176Y-858012D01*
X-151637Y-844295D01*
X-56134Y-844295D01*
X-119887Y-814323D02*
G01*
X-56134Y-764286D01*
X-119887Y-764286D02*
G01*
X-56134Y-814323D01*
X-151637Y-664463D02*
G01*
X-56134Y-664463D01*
X-106171Y-664463D02*
G01*
X-115315Y-655320D01*
X-119887Y-646176D01*
X-119887Y-632460D01*
X-115315Y-623570D01*
X-106171Y-614426D01*
X-92710Y-609854D01*
X-83565Y-609854D01*
X-69850Y-614426D01*
X-60705Y-623570D01*
X-56134Y-632460D01*
X-56134Y-646176D01*
X-60705Y-655320D01*
X-69850Y-664463D01*
X-119887Y-525271D02*
G01*
X-56134Y-525271D01*
X-106171Y-525271D02*
G01*
X-115315Y-534415D01*
X-119887Y-543560D01*
X-119887Y-557021D01*
X-115315Y-566165D01*
X-106171Y-575310D01*
X-92710Y-579881D01*
X-83565Y-579881D01*
X-69850Y-575310D01*
X-60705Y-566165D01*
X-56134Y-557021D01*
X-56134Y-543560D01*
X-60705Y-534415D01*
X-69850Y-525271D01*
X-151637Y-481584D02*
G01*
X-74421Y-481584D01*
X-60705Y-477012D01*
X-56134Y-468121D01*
X-56134Y-458978D01*
X-119887Y-495300D02*
G01*
X-119887Y-463550D01*
X-151637Y-415289D02*
G01*
X-74421Y-415289D01*
X-60705Y-410718D01*
X-56134Y-401573D01*
X-56134Y-392684D01*
X-119887Y-429005D02*
G01*
X-119887Y-397002D01*
X-119887Y-292607D02*
G01*
X-56134Y-265176D01*
X-119887Y-237997D02*
G01*
X-56134Y-265176D01*
X-133604Y-208026D02*
G01*
X-138176Y-198881D01*
X-151637Y-185165D01*
X-56134Y-185165D01*
X-78994Y-150621D02*
G01*
X-74421Y-155194D01*
X-69850Y-150621D01*
X-74421Y-146304D01*
X-78994Y-150621D01*
X-151637Y-88900D02*
G01*
X-147065Y-102615D01*
X-133604Y-111760D01*
X-110744Y-116078D01*
X-97281Y-116078D01*
X-74421Y-111760D01*
X-60705Y-102615D01*
X-56134Y-88900D01*
X-56134Y-79755D01*
X-60705Y-66294D01*
X-74421Y-57150D01*
X-97281Y-52578D01*
X-110744Y-52578D01*
X-133604Y-57150D01*
X-147065Y-66294D01*
X-151637Y-79755D01*
X-151637Y-88900D01*
X-5587Y-1206500D02*
G01*
X58165Y-1188212D01*
X-5587Y-1170178D02*
G01*
X58165Y-1188212D01*
X-5587Y-1170178D02*
G01*
X58165Y-1151889D01*
X-5587Y-1133855D02*
G01*
X58165Y-1151889D01*
X-5587Y-1103884D02*
G01*
X58165Y-1085595D01*
X-5587Y-1067307D02*
G01*
X58165Y-1085595D01*
X-5587Y-1067307D02*
G01*
X58165Y-1049273D01*
X-5587Y-1030986D02*
G01*
X58165Y-1049273D01*
X-5587Y-1001013D02*
G01*
X58165Y-982979D01*
X-5587Y-964692D02*
G01*
X58165Y-982979D01*
X-5587Y-964692D02*
G01*
X58165Y-946404D01*
X-5587Y-928370D02*
G01*
X58165Y-946404D01*
X35305Y-893826D02*
G01*
X39878Y-898397D01*
X44450Y-893826D01*
X39878Y-889254D01*
X35305Y-893826D01*
X-5587Y-859281D02*
G01*
X58165Y-859281D01*
X21589Y-859281D02*
G01*
X8128Y-854710D01*
X-1015Y-845565D01*
X-5587Y-836421D01*
X-5587Y-822960D01*
X-37337Y-765555D02*
G01*
X-32765Y-779271D01*
X-19304Y-788415D01*
X3555Y-792987D01*
X17018Y-792987D01*
X39878Y-788415D01*
X53594Y-779271D01*
X58165Y-765555D01*
X58165Y-756412D01*
X53594Y-742950D01*
X39878Y-733805D01*
X17018Y-729234D01*
X3555Y-729234D01*
X-19304Y-733805D01*
X-32765Y-742950D01*
X-37337Y-756412D01*
X-37337Y-765555D01*
X-37337Y-671829D02*
G01*
X-32765Y-685545D01*
X-19304Y-694689D01*
X3555Y-699262D01*
X17018Y-699262D01*
X39878Y-694689D01*
X53594Y-685545D01*
X58165Y-671829D01*
X58165Y-662939D01*
X53594Y-649223D01*
X39878Y-640079D01*
X17018Y-635507D01*
X3555Y-635507D01*
X-19304Y-640079D01*
X-32765Y-649223D01*
X-37337Y-662939D01*
X-37337Y-671829D01*
X-37337Y-605536D02*
G01*
X58165Y-605536D01*
X-37337Y-575563D02*
G01*
X-32765Y-570992D01*
X-37337Y-566420D01*
X-41910Y-570992D01*
X-37337Y-575563D01*
X-5587Y-570992D02*
G01*
X58165Y-570992D01*
X35305Y-531876D02*
G01*
X39878Y-536447D01*
X44450Y-531876D01*
X39878Y-527304D01*
X35305Y-531876D01*
X8128Y-442976D02*
G01*
X-1015Y-451865D01*
X-5587Y-461010D01*
X-5587Y-474726D01*
X-1015Y-483870D01*
X8128Y-492760D01*
X21589Y-497331D01*
X30734Y-497331D01*
X44450Y-492760D01*
X53594Y-483870D01*
X58165Y-474726D01*
X58165Y-461010D01*
X53594Y-451865D01*
X44450Y-442976D01*
X-5587Y-390144D02*
G01*
X-1015Y-399287D01*
X8128Y-408431D01*
X21589Y-412750D01*
X30734Y-412750D01*
X44450Y-408431D01*
X53594Y-399287D01*
X58165Y-390144D01*
X58165Y-376428D01*
X53594Y-367284D01*
X44450Y-358394D01*
X30734Y-353821D01*
X21589Y-353821D01*
X8128Y-358394D01*
X-1015Y-367284D01*
X-5587Y-376428D01*
X-5587Y-390144D01*
X-5587Y-323850D02*
G01*
X58165Y-323850D01*
X12700Y-323850D02*
G01*
X-1015Y-310134D01*
X-5587Y-300989D01*
X-5587Y-287528D01*
X-1015Y-278384D01*
X12700Y-273812D01*
X58165Y-273812D01*
X12700Y-273812D02*
G01*
X-1015Y-260095D01*
X-5587Y-250952D01*
X-5587Y-237489D01*
X-1015Y-228345D01*
X12700Y-223773D01*
X58165Y-223773D01*
X3860800Y-1232662D02*
G01*
X3860800Y-1328165D01*
X3860800Y-1232662D02*
G01*
X3892550Y-1232662D01*
X3906265Y-1237234D01*
X3915409Y-1246123D01*
X3919981Y-1255268D01*
X3924554Y-1268984D01*
X3924554Y-1291589D01*
X3919981Y-1305305D01*
X3915409Y-1314450D01*
X3906265Y-1323594D01*
X3892550Y-1328165D01*
X3860800Y-1328165D01*
X3954525Y-1250695D02*
G01*
X3963415Y-1246123D01*
X3977131Y-1232662D01*
X3977131Y-1328165D01*
X3873500Y-775462D02*
G01*
X3873500Y-870965D01*
X3873500Y-775462D02*
G01*
X3905250Y-775462D01*
X3918965Y-780034D01*
X3928109Y-788923D01*
X3932681Y-798068D01*
X3937254Y-811784D01*
X3937254Y-834389D01*
X3932681Y-848105D01*
X3928109Y-857250D01*
X3918965Y-866394D01*
X3905250Y-870965D01*
X3873500Y-870965D01*
X3971797Y-798068D02*
G01*
X3971797Y-793495D01*
X3976115Y-784605D01*
X3980688Y-780034D01*
X3989831Y-775462D01*
X4008120Y-775462D01*
X4017009Y-780034D01*
X4021581Y-784605D01*
X4026154Y-793495D01*
X4026154Y-802639D01*
X4021581Y-811784D01*
X4012691Y-825500D01*
X3967225Y-870965D01*
X4030725Y-870965D01*
X4191761Y-495223D02*
G01*
X4287265Y-495223D01*
X4191761Y-495223D02*
G01*
X4191761Y-463473D01*
X4196334Y-449757D01*
X4205224Y-440867D01*
X4214368Y-436295D01*
X4228084Y-431723D01*
X4250690Y-431723D01*
X4264406Y-436295D01*
X4273550Y-440867D01*
X4282693Y-449757D01*
X4287265Y-463473D01*
X4287265Y-495223D01*
X4191761Y-392607D02*
G01*
X4191761Y-342569D01*
X4228084Y-369747D01*
X4228084Y-356285D01*
X4232656Y-347141D01*
X4237227Y-342569D01*
X4250690Y-337997D01*
X4259834Y-337997D01*
X4273550Y-342569D01*
X4282693Y-351713D01*
X4287265Y-365175D01*
X4287265Y-378891D01*
X4282693Y-392607D01*
X4278122Y-397179D01*
X4268977Y-401751D01*
X5309361Y-482600D02*
G01*
X5404865Y-482600D01*
X5309361Y-482600D02*
G01*
X5309361Y-450850D01*
X5313934Y-437134D01*
X5322824Y-427989D01*
X5331968Y-423418D01*
X5345684Y-418845D01*
X5368290Y-418845D01*
X5382006Y-423418D01*
X5391150Y-427989D01*
X5400293Y-437134D01*
X5404865Y-450850D01*
X5404865Y-482600D01*
X5309361Y-343407D02*
G01*
X5372861Y-388873D01*
X5372861Y-320802D01*
X5309361Y-343407D02*
G01*
X5404865Y-343407D01*
X903478Y-635762D02*
G01*
X894587Y-640334D01*
X885444Y-649223D01*
X880871Y-658368D01*
X876300Y-672084D01*
X876300Y-694689D01*
X880871Y-708405D01*
X885444Y-717550D01*
X894587Y-726694D01*
X903478Y-731265D01*
X921765Y-731265D01*
X930910Y-726694D01*
X940054Y-717550D01*
X944371Y-708405D01*
X948944Y-694689D01*
X948944Y-672084D01*
X944371Y-658368D01*
X940054Y-649223D01*
X930910Y-640334D01*
X921765Y-635762D01*
X903478Y-635762D01*
X917194Y-712978D02*
G01*
X944371Y-740155D01*
X978915Y-653795D02*
G01*
X988060Y-649223D01*
X1001776Y-635762D01*
X1001776Y-731265D01*
X1906778Y-648462D02*
G01*
X1897887Y-653034D01*
X1888744Y-661923D01*
X1884171Y-671068D01*
X1879600Y-684784D01*
X1879600Y-707389D01*
X1884171Y-721105D01*
X1888744Y-730250D01*
X1897887Y-739394D01*
X1906778Y-743965D01*
X1925065Y-743965D01*
X1934209Y-739394D01*
X1943354Y-730250D01*
X1947672Y-721105D01*
X1952243Y-707389D01*
X1952243Y-684784D01*
X1947672Y-671068D01*
X1943354Y-661923D01*
X1934209Y-653034D01*
X1925065Y-648462D01*
X1906778Y-648462D01*
X1920494Y-725678D02*
G01*
X1947672Y-752855D01*
X1986788Y-671068D02*
G01*
X1986788Y-666495D01*
X1991359Y-657605D01*
X1995931Y-653034D01*
X2005075Y-648462D01*
X2023109Y-648462D01*
X2032254Y-653034D01*
X2036825Y-657605D01*
X2041397Y-666495D01*
X2041397Y-675639D01*
X2036825Y-684784D01*
X2027681Y-698500D01*
X1982215Y-743965D01*
X2045970Y-743965D01*
X2833877Y-1105662D02*
G01*
X2824988Y-1110234D01*
X2815843Y-1119123D01*
X2811272Y-1128268D01*
X2806700Y-1141984D01*
X2806700Y-1164589D01*
X2811272Y-1178305D01*
X2815843Y-1187450D01*
X2824988Y-1196594D01*
X2833877Y-1201165D01*
X2852165Y-1201165D01*
X2861309Y-1196594D01*
X2870454Y-1187450D01*
X2874772Y-1178305D01*
X2879343Y-1164589D01*
X2879343Y-1141984D01*
X2874772Y-1128268D01*
X2870454Y-1119123D01*
X2861309Y-1110234D01*
X2852165Y-1105662D01*
X2833877Y-1105662D01*
X2847593Y-1182878D02*
G01*
X2874772Y-1210055D01*
X2918459Y-1105662D02*
G01*
X2968497Y-1105662D01*
X2941320Y-1141984D01*
X2954781Y-1141984D01*
X2963925Y-1146555D01*
X2968497Y-1151128D01*
X2973070Y-1164589D01*
X2973070Y-1173734D01*
X2968497Y-1187450D01*
X2959354Y-1196594D01*
X2945891Y-1201165D01*
X2932175Y-1201165D01*
X2918459Y-1196594D01*
X2913888Y-1192021D01*
X2909315Y-1182878D01*
X1168400Y-76962D02*
G01*
X1168400Y-172465D01*
X1168400Y-76962D02*
G01*
X1209294Y-76962D01*
X1223010Y-81534D01*
X1227581Y-86105D01*
X1232154Y-94995D01*
X1232154Y-104139D01*
X1227581Y-113284D01*
X1223010Y-117855D01*
X1209294Y-122428D01*
X1168400Y-122428D01*
X1200150Y-122428D02*
G01*
X1232154Y-172465D01*
X1262126Y-94995D02*
G01*
X1271015Y-90423D01*
X1284731Y-76962D01*
X1284731Y-172465D01*
X5384800Y-610362D02*
G01*
X5384800Y-705865D01*
X5384800Y-610362D02*
G01*
X5425693Y-610362D01*
X5439409Y-614934D01*
X5443981Y-619505D01*
X5448554Y-628395D01*
X5448554Y-637539D01*
X5443981Y-646684D01*
X5439409Y-651255D01*
X5425693Y-655828D01*
X5384800Y-655828D01*
X5416550Y-655828D02*
G01*
X5448554Y-705865D01*
X5523991Y-610362D02*
G01*
X5478525Y-673862D01*
X5546597Y-673862D01*
X5523991Y-610362D02*
G01*
X5523991Y-705865D01*
X2044700Y-127762D02*
G01*
X2044700Y-223265D01*
X2044700Y-127762D02*
G01*
X2085593Y-127762D01*
X2099309Y-132334D01*
X2103881Y-136905D01*
X2108454Y-145795D01*
X2108454Y-154939D01*
X2103881Y-164084D01*
X2099309Y-168655D01*
X2085593Y-173228D01*
X2044700Y-173228D01*
X2076450Y-173228D02*
G01*
X2108454Y-223265D01*
X2192781Y-127762D02*
G01*
X2147315Y-127762D01*
X2142997Y-168655D01*
X2147315Y-164084D01*
X2161031Y-159512D01*
X2174747Y-159512D01*
X2188209Y-164084D01*
X2197354Y-173228D01*
X2201925Y-186689D01*
X2201925Y-195834D01*
X2197354Y-209550D01*
X2188209Y-218694D01*
X2174747Y-223265D01*
X2161031Y-223265D01*
X2147315Y-218694D01*
X2142997Y-214121D01*
X2138425Y-204978D01*
X3225800Y-76962D02*
G01*
X3225800Y-145034D01*
X3230372Y-158750D01*
X3239515Y-167894D01*
X3252977Y-172465D01*
X3262122Y-172465D01*
X3275838Y-167894D01*
X3284981Y-158750D01*
X3289554Y-145034D01*
X3289554Y-76962D01*
X3319525Y-94995D02*
G01*
X3328415Y-90423D01*
X3342131Y-76962D01*
X3342131Y-172465D01*
X5385561Y-228600D02*
G01*
X5481065Y-228600D01*
X5385561Y-228600D02*
G01*
X5385561Y-187705D01*
X5390134Y-173989D01*
X5394706Y-169418D01*
X5403595Y-164845D01*
X5412740Y-164845D01*
X5421884Y-169418D01*
X5426456Y-173989D01*
X5431027Y-187705D01*
X5431027Y-228600D02*
G01*
X5431027Y-187705D01*
X5435600Y-173989D01*
X5439918Y-169418D01*
X5449061Y-164845D01*
X5462777Y-164845D01*
X5471922Y-169418D01*
X5476493Y-173989D01*
X5481065Y-187705D01*
X5481065Y-228600D01*
X5385561Y-134873D02*
G01*
X5481065Y-134873D01*
X5385561Y-134873D02*
G01*
X5481065Y-98552D01*
X5385561Y-62229D02*
G01*
X5481065Y-98552D01*
X5385561Y-62229D02*
G01*
X5481065Y-62229D01*
X3160268Y-1201928D02*
G01*
X3151124Y-1206245D01*
X3142234Y-1215389D01*
X3137661Y-1224534D01*
X3137661Y-1242821D01*
X3142234Y-1251712D01*
X3151124Y-1260855D01*
X3160268Y-1265428D01*
X3173984Y-1270000D01*
X3196590Y-1270000D01*
X3210306Y-1265428D01*
X3219450Y-1260855D01*
X3228593Y-1251712D01*
X3233165Y-1242821D01*
X3233165Y-1224534D01*
X3228593Y-1215389D01*
X3219450Y-1206245D01*
X3210306Y-1201928D01*
X3160268Y-1167384D02*
G01*
X3155695Y-1167384D01*
X3146806Y-1162812D01*
X3142234Y-1158239D01*
X3137661Y-1149095D01*
X3137661Y-1130807D01*
X3142234Y-1121918D01*
X3146806Y-1117345D01*
X3155695Y-1112773D01*
X3164840Y-1112773D01*
X3173984Y-1117345D01*
X3187700Y-1126489D01*
X3233165Y-1171702D01*
X3233165Y-1108202D01*
X3916172Y-150368D02*
G01*
X3911854Y-141223D01*
X3902709Y-132334D01*
X3893565Y-127762D01*
X3875277Y-127762D01*
X3866388Y-132334D01*
X3857243Y-141223D01*
X3852672Y-150368D01*
X3848100Y-164084D01*
X3848100Y-186689D01*
X3852672Y-200405D01*
X3857243Y-209550D01*
X3866388Y-218694D01*
X3875277Y-223265D01*
X3893565Y-223265D01*
X3902709Y-218694D01*
X3911854Y-209550D01*
X3916172Y-200405D01*
X3955288Y-127762D02*
G01*
X4005325Y-127762D01*
X3978147Y-164084D01*
X3991609Y-164084D01*
X4000754Y-168655D01*
X4005325Y-173228D01*
X4009897Y-186689D01*
X4009897Y-195834D01*
X4005325Y-209550D01*
X3996181Y-218694D01*
X3982720Y-223265D01*
X3969004Y-223265D01*
X3955288Y-218694D01*
X3950715Y-214121D01*
X3946397Y-204978D01*
X2544572Y-239268D02*
G01*
X2540254Y-230123D01*
X2531109Y-221234D01*
X2521965Y-216662D01*
X2503677Y-216662D01*
X2494788Y-221234D01*
X2485643Y-230123D01*
X2481072Y-239268D01*
X2476500Y-252984D01*
X2476500Y-275589D01*
X2481072Y-289305D01*
X2485643Y-298450D01*
X2494788Y-307594D01*
X2503677Y-312165D01*
X2521965Y-312165D01*
X2531109Y-307594D01*
X2540254Y-298450D01*
X2544572Y-289305D01*
X2620009Y-216662D02*
G01*
X2574797Y-280162D01*
X2642870Y-280162D01*
X2620009Y-216662D02*
G01*
X2620009Y-312165D01*
X2544572Y-378968D02*
G01*
X2540254Y-369823D01*
X2531109Y-360934D01*
X2521965Y-356362D01*
X2503677Y-356362D01*
X2494788Y-360934D01*
X2485643Y-369823D01*
X2481072Y-378968D01*
X2476500Y-392684D01*
X2476500Y-415289D01*
X2481072Y-429005D01*
X2485643Y-438150D01*
X2494788Y-447294D01*
X2503677Y-451865D01*
X2521965Y-451865D01*
X2531109Y-447294D01*
X2540254Y-438150D01*
X2544572Y-429005D01*
X2629154Y-369823D02*
G01*
X2624581Y-360934D01*
X2611120Y-356362D01*
X2601975Y-356362D01*
X2588259Y-360934D01*
X2579115Y-374395D01*
X2574797Y-397255D01*
X2574797Y-419862D01*
X2579115Y-438150D01*
X2588259Y-447294D01*
X2601975Y-451865D01*
X2606547Y-451865D01*
X2620009Y-447294D01*
X2629154Y-438150D01*
X2633725Y-424434D01*
X2633725Y-419862D01*
X2629154Y-406400D01*
X2620009Y-397255D01*
X2606547Y-392684D01*
X2601975Y-392684D01*
X2588259Y-397255D01*
X2579115Y-406400D01*
X2574797Y-419862D01*
X2544572Y-518668D02*
G01*
X2540254Y-509523D01*
X2531109Y-500634D01*
X2521965Y-496062D01*
X2503677Y-496062D01*
X2494788Y-500634D01*
X2485643Y-509523D01*
X2481072Y-518668D01*
X2476500Y-532384D01*
X2476500Y-554989D01*
X2481072Y-568705D01*
X2485643Y-577850D01*
X2494788Y-586994D01*
X2503677Y-591565D01*
X2521965Y-591565D01*
X2531109Y-586994D01*
X2540254Y-577850D01*
X2544572Y-568705D01*
X2638297Y-496062D02*
G01*
X2592831Y-591565D01*
X2574797Y-496062D02*
G01*
X2638297Y-496062D01*
X1280668Y-376428D02*
G01*
X1271523Y-380745D01*
X1262634Y-389889D01*
X1258062Y-399034D01*
X1258062Y-417321D01*
X1262634Y-426212D01*
X1271523Y-435355D01*
X1280668Y-439928D01*
X1294384Y-444500D01*
X1316989Y-444500D01*
X1330705Y-439928D01*
X1339850Y-435355D01*
X1348994Y-426212D01*
X1353565Y-417321D01*
X1353565Y-399034D01*
X1348994Y-389889D01*
X1339850Y-380745D01*
X1330705Y-376428D01*
X1258062Y-323595D02*
G01*
X1262634Y-337312D01*
X1271523Y-341884D01*
X1280668Y-341884D01*
X1289812Y-337312D01*
X1294384Y-328168D01*
X1298955Y-309879D01*
X1303528Y-296418D01*
X1312418Y-287273D01*
X1321562Y-282702D01*
X1335278Y-282702D01*
X1344421Y-287273D01*
X1348994Y-291845D01*
X1353565Y-305307D01*
X1353565Y-323595D01*
X1348994Y-337312D01*
X1344421Y-341884D01*
X1335278Y-346202D01*
X1321562Y-346202D01*
X1312418Y-341884D01*
X1303528Y-332739D01*
X1298955Y-319023D01*
X1294384Y-300989D01*
X1289812Y-291845D01*
X1280668Y-287273D01*
X1271523Y-287273D01*
X1262634Y-291845D01*
X1258062Y-305307D01*
X1258062Y-323595D01*
X1598168Y-363728D02*
G01*
X1589023Y-368045D01*
X1580134Y-377189D01*
X1575562Y-386334D01*
X1575562Y-404621D01*
X1580134Y-413512D01*
X1589023Y-422655D01*
X1598168Y-427228D01*
X1611884Y-431800D01*
X1634489Y-431800D01*
X1648205Y-427228D01*
X1657350Y-422655D01*
X1666494Y-413512D01*
X1671065Y-404621D01*
X1671065Y-386334D01*
X1666494Y-377189D01*
X1657350Y-368045D01*
X1648205Y-363728D01*
X1607312Y-274573D02*
G01*
X1621028Y-279145D01*
X1629918Y-288289D01*
X1634489Y-301752D01*
X1634489Y-306323D01*
X1629918Y-320039D01*
X1621028Y-329184D01*
X1607312Y-333502D01*
X1602739Y-333502D01*
X1589023Y-329184D01*
X1580134Y-320039D01*
X1575562Y-306323D01*
X1575562Y-301752D01*
X1580134Y-288289D01*
X1589023Y-279145D01*
X1607312Y-274573D01*
X1629918Y-274573D01*
X1652778Y-279145D01*
X1666494Y-288289D01*
X1671065Y-301752D01*
X1671065Y-310895D01*
X1666494Y-324612D01*
X1657350Y-329184D01*
X1737868Y-389128D02*
G01*
X1728723Y-393445D01*
X1719834Y-402589D01*
X1715262Y-411734D01*
X1715262Y-430021D01*
X1719834Y-438912D01*
X1728723Y-448055D01*
X1737868Y-452628D01*
X1751584Y-457200D01*
X1774189Y-457200D01*
X1787905Y-452628D01*
X1797050Y-448055D01*
X1806194Y-438912D01*
X1810765Y-430021D01*
X1810765Y-411734D01*
X1806194Y-402589D01*
X1797050Y-393445D01*
X1787905Y-389128D01*
X1733295Y-358902D02*
G01*
X1728723Y-350012D01*
X1715262Y-336295D01*
X1810765Y-336295D01*
X1715262Y-278892D02*
G01*
X1719834Y-292607D01*
X1733295Y-301752D01*
X1756155Y-306323D01*
X1769618Y-306323D01*
X1792478Y-301752D01*
X1806194Y-292607D01*
X1810765Y-278892D01*
X1810765Y-270002D01*
X1806194Y-256286D01*
X1792478Y-247142D01*
X1769618Y-242570D01*
X1756155Y-242570D01*
X1733295Y-247142D01*
X1719834Y-256286D01*
X1715262Y-270002D01*
X1715262Y-278892D01*
X5789168Y-1240028D02*
G01*
X5780024Y-1244345D01*
X5771134Y-1253489D01*
X5766561Y-1262634D01*
X5766561Y-1280921D01*
X5771134Y-1289812D01*
X5780024Y-1298955D01*
X5789168Y-1303528D01*
X5802884Y-1308100D01*
X5825490Y-1308100D01*
X5839206Y-1303528D01*
X5848350Y-1298955D01*
X5857493Y-1289812D01*
X5862065Y-1280921D01*
X5862065Y-1262634D01*
X5857493Y-1253489D01*
X5848350Y-1244345D01*
X5839206Y-1240028D01*
X5784595Y-1209802D02*
G01*
X5780024Y-1200912D01*
X5766561Y-1187195D01*
X5862065Y-1187195D01*
X5784595Y-1157223D02*
G01*
X5780024Y-1148079D01*
X5766561Y-1134363D01*
X5862065Y-1134363D01*
X5357317Y-1252575D02*
G01*
X5348427Y-1257147D01*
X5339283Y-1266291D01*
X5334711Y-1275435D01*
X5334711Y-1293469D01*
X5339283Y-1302613D01*
X5348427Y-1311757D01*
X5357317Y-1316329D01*
X5371033Y-1320901D01*
X5393893Y-1320901D01*
X5407355Y-1316329D01*
X5416499Y-1311757D01*
X5425643Y-1302613D01*
X5430215Y-1293469D01*
X5430215Y-1275435D01*
X5425643Y-1266291D01*
X5416499Y-1257147D01*
X5407355Y-1252575D01*
X5352999Y-1222603D02*
G01*
X5348427Y-1213459D01*
X5334711Y-1199997D01*
X5430215Y-1199997D01*
X5357317Y-1165453D02*
G01*
X5352999Y-1165453D01*
X5343855Y-1160881D01*
X5339283Y-1156309D01*
X5334711Y-1147165D01*
X5334711Y-1128877D01*
X5339283Y-1119987D01*
X5343855Y-1115415D01*
X5352999Y-1110843D01*
X5361889Y-1110843D01*
X5371033Y-1115415D01*
X5384749Y-1124559D01*
X5430215Y-1169771D01*
X5430215Y-1106271D01*
X3890772Y-963168D02*
G01*
X3886454Y-954023D01*
X3877309Y-945134D01*
X3868165Y-940562D01*
X3849877Y-940562D01*
X3840988Y-945134D01*
X3831843Y-954023D01*
X3827272Y-963168D01*
X3822700Y-976884D01*
X3822700Y-999489D01*
X3827272Y-1013205D01*
X3831843Y-1022350D01*
X3840988Y-1031494D01*
X3849877Y-1036065D01*
X3868165Y-1036065D01*
X3877309Y-1031494D01*
X3886454Y-1022350D01*
X3890772Y-1013205D01*
X3920997Y-958595D02*
G01*
X3929888Y-954023D01*
X3943604Y-940562D01*
X3943604Y-1036065D01*
X3982720Y-940562D02*
G01*
X4032758Y-940562D01*
X4005325Y-976884D01*
X4019041Y-976884D01*
X4028186Y-981455D01*
X4032758Y-986028D01*
X4037329Y-999489D01*
X4037329Y-1008634D01*
X4032758Y-1022350D01*
X4023613Y-1031494D01*
X4009897Y-1036065D01*
X3996436Y-1036065D01*
X3982720Y-1031494D01*
X3978147Y-1026921D01*
X3973575Y-1017778D01*
X3860800Y-267462D02*
G01*
X3860800Y-362965D01*
X3860800Y-267462D02*
G01*
X3901693Y-267462D01*
X3915409Y-272034D01*
X3919981Y-276605D01*
X3924554Y-285495D01*
X3924554Y-294639D01*
X3919981Y-303784D01*
X3915409Y-308355D01*
X3901693Y-312928D01*
X3860800Y-312928D01*
X3892550Y-312928D02*
G01*
X3924554Y-362965D01*
X3963415Y-267462D02*
G01*
X4013454Y-267462D01*
X3986275Y-303784D01*
X3999991Y-303784D01*
X4008881Y-308355D01*
X4013454Y-312928D01*
X4018025Y-326389D01*
X4018025Y-335534D01*
X4013454Y-349250D01*
X4004309Y-358394D01*
X3990847Y-362965D01*
X3977131Y-362965D01*
X3963415Y-358394D01*
X3959097Y-353821D01*
X3954525Y-344678D01*
X4610100Y-1181862D02*
G01*
X4610100Y-1277365D01*
X4610100Y-1181862D02*
G01*
X4650993Y-1181862D01*
X4664709Y-1186434D01*
X4669281Y-1191005D01*
X4673854Y-1199895D01*
X4673854Y-1209039D01*
X4669281Y-1218184D01*
X4664709Y-1222755D01*
X4650993Y-1227328D01*
X4610100Y-1227328D01*
X4641850Y-1227328D02*
G01*
X4673854Y-1277365D01*
X4758181Y-1195323D02*
G01*
X4753609Y-1186434D01*
X4740147Y-1181862D01*
X4731004Y-1181862D01*
X4717288Y-1186434D01*
X4708397Y-1199895D01*
X4703825Y-1222755D01*
X4703825Y-1245362D01*
X4708397Y-1263650D01*
X4717288Y-1272794D01*
X4731004Y-1277365D01*
X4735575Y-1277365D01*
X4749291Y-1272794D01*
X4758181Y-1263650D01*
X4762754Y-1249934D01*
X4762754Y-1245362D01*
X4758181Y-1231900D01*
X4749291Y-1222755D01*
X4735575Y-1218184D01*
X4731004Y-1218184D01*
X4717288Y-1222755D01*
X4708397Y-1231900D01*
X4703825Y-1245362D01*
X3911600Y-546862D02*
G01*
X3911600Y-642365D01*
X3911600Y-546862D02*
G01*
X3952493Y-546862D01*
X3966209Y-551434D01*
X3970781Y-556005D01*
X3975354Y-564895D01*
X3975354Y-574039D01*
X3970781Y-583184D01*
X3966209Y-587755D01*
X3952493Y-592328D01*
X3911600Y-592328D01*
X3943350Y-592328D02*
G01*
X3975354Y-642365D01*
X4068825Y-546862D02*
G01*
X4023359Y-642365D01*
X4005325Y-546862D02*
G01*
X4068825Y-546862D01*
X1410462Y-444500D02*
G01*
X1505965Y-444500D01*
X1410462Y-444500D02*
G01*
X1410462Y-403605D01*
X1415034Y-389889D01*
X1419605Y-385318D01*
X1428495Y-380745D01*
X1437639Y-380745D01*
X1446784Y-385318D01*
X1451355Y-389889D01*
X1455928Y-403605D01*
X1455928Y-444500D01*
X1455928Y-412750D02*
G01*
X1505965Y-380745D01*
X1410462Y-328168D02*
G01*
X1415034Y-341884D01*
X1423923Y-346202D01*
X1433068Y-346202D01*
X1442212Y-341884D01*
X1446784Y-332739D01*
X1451355Y-314452D01*
X1455928Y-300989D01*
X1464818Y-291845D01*
X1473962Y-287273D01*
X1487678Y-287273D01*
X1496821Y-291845D01*
X1501394Y-296418D01*
X1505965Y-309879D01*
X1505965Y-328168D01*
X1501394Y-341884D01*
X1496821Y-346202D01*
X1487678Y-350773D01*
X1473962Y-350773D01*
X1464818Y-346202D01*
X1455928Y-337312D01*
X1451355Y-323595D01*
X1446784Y-305307D01*
X1442212Y-296418D01*
X1433068Y-291845D01*
X1423923Y-291845D01*
X1415034Y-296418D01*
X1410462Y-309879D01*
X1410462Y-328168D01*
X3302761Y-1193800D02*
G01*
X3398265Y-1193800D01*
X3302761Y-1193800D02*
G01*
X3302761Y-1152905D01*
X3307334Y-1139189D01*
X3311906Y-1134618D01*
X3320795Y-1130045D01*
X3329940Y-1130045D01*
X3339084Y-1134618D01*
X3343656Y-1139189D01*
X3348227Y-1152905D01*
X3348227Y-1193800D01*
X3348227Y-1162050D02*
G01*
X3398265Y-1130045D01*
X3334511Y-1041145D02*
G01*
X3348227Y-1045718D01*
X3357118Y-1054607D01*
X3361690Y-1068323D01*
X3361690Y-1072895D01*
X3357118Y-1086612D01*
X3348227Y-1095502D01*
X3334511Y-1100073D01*
X3329940Y-1100073D01*
X3316224Y-1095502D01*
X3307334Y-1086612D01*
X3302761Y-1072895D01*
X3302761Y-1068323D01*
X3307334Y-1054607D01*
X3316224Y-1045718D01*
X3334511Y-1041145D01*
X3357118Y-1041145D01*
X3379977Y-1045718D01*
X3393693Y-1054607D01*
X3398265Y-1068323D01*
X3398265Y-1077468D01*
X3393693Y-1091184D01*
X3384550Y-1095502D01*
X2501900Y-1245362D02*
G01*
X2501900Y-1340865D01*
X2501900Y-1245362D02*
G01*
X2542793Y-1245362D01*
X2556509Y-1249934D01*
X2561081Y-1254505D01*
X2565654Y-1263395D01*
X2565654Y-1272539D01*
X2561081Y-1281684D01*
X2556509Y-1286255D01*
X2542793Y-1290828D01*
X2501900Y-1290828D01*
X2533650Y-1290828D02*
G01*
X2565654Y-1340865D01*
X2595625Y-1263395D02*
G01*
X2604515Y-1258823D01*
X2618231Y-1245362D01*
X2618231Y-1340865D01*
X2675636Y-1245362D02*
G01*
X2661920Y-1249934D01*
X2652775Y-1263395D01*
X2648204Y-1286255D01*
X2648204Y-1299718D01*
X2652775Y-1322578D01*
X2661920Y-1336294D01*
X2675636Y-1340865D01*
X2684525Y-1340865D01*
X2698241Y-1336294D01*
X2707386Y-1322578D01*
X2711958Y-1299718D01*
X2711958Y-1286255D01*
X2707386Y-1263395D01*
X2698241Y-1249934D01*
X2684525Y-1245362D01*
X2675636Y-1245362D01*
X3797300Y-1080262D02*
G01*
X3797300Y-1175765D01*
X3797300Y-1080262D02*
G01*
X3838193Y-1080262D01*
X3851909Y-1084834D01*
X3856481Y-1089405D01*
X3861054Y-1098295D01*
X3861054Y-1107439D01*
X3856481Y-1116584D01*
X3851909Y-1121155D01*
X3838193Y-1125728D01*
X3797300Y-1125728D01*
X3829050Y-1125728D02*
G01*
X3861054Y-1175765D01*
X3891025Y-1098295D02*
G01*
X3899915Y-1093723D01*
X3913631Y-1080262D01*
X3913631Y-1175765D01*
X3943604Y-1098295D02*
G01*
X3952747Y-1093723D01*
X3966463Y-1080262D01*
X3966463Y-1175765D01*
X2603500Y-711962D02*
G01*
X2603500Y-807465D01*
X2603500Y-711962D02*
G01*
X2644393Y-711962D01*
X2658109Y-716534D01*
X2662681Y-721105D01*
X2667254Y-729995D01*
X2667254Y-739139D01*
X2662681Y-748284D01*
X2658109Y-752855D01*
X2644393Y-757428D01*
X2603500Y-757428D01*
X2635250Y-757428D02*
G01*
X2667254Y-807465D01*
X2701797Y-734568D02*
G01*
X2701797Y-729995D01*
X2706115Y-721105D01*
X2710688Y-716534D01*
X2719831Y-711962D01*
X2738120Y-711962D01*
X2747009Y-716534D01*
X2751581Y-721105D01*
X2756154Y-729995D01*
X2756154Y-739139D01*
X2751581Y-748284D01*
X2742691Y-762000D01*
X2697225Y-807465D01*
X2760725Y-807465D01*
X2989072Y-988568D02*
G01*
X2984754Y-979423D01*
X2975609Y-970534D01*
X2966465Y-965962D01*
X2948177Y-965962D01*
X2939288Y-970534D01*
X2930143Y-979423D01*
X2925572Y-988568D01*
X2921000Y-1002284D01*
X2921000Y-1024889D01*
X2925572Y-1038605D01*
X2930143Y-1047750D01*
X2939288Y-1056894D01*
X2948177Y-1061465D01*
X2966465Y-1061465D01*
X2975609Y-1056894D01*
X2984754Y-1047750D01*
X2989072Y-1038605D01*
X3019297Y-983995D02*
G01*
X3028188Y-979423D01*
X3041904Y-965962D01*
X3041904Y-1061465D01*
X4005072Y-429768D02*
G01*
X4000754Y-420623D01*
X3991609Y-411734D01*
X3982465Y-407162D01*
X3964177Y-407162D01*
X3955288Y-411734D01*
X3946143Y-420623D01*
X3941572Y-429768D01*
X3937000Y-443484D01*
X3937000Y-466089D01*
X3941572Y-479805D01*
X3946143Y-488950D01*
X3955288Y-498094D01*
X3964177Y-502665D01*
X3982465Y-502665D01*
X3991609Y-498094D01*
X4000754Y-488950D01*
X4005072Y-479805D01*
X4089654Y-407162D02*
G01*
X4044188Y-407162D01*
X4039615Y-448055D01*
X4044188Y-443484D01*
X4057904Y-438912D01*
X4071620Y-438912D01*
X4085081Y-443484D01*
X4094225Y-452628D01*
X4098797Y-466089D01*
X4098797Y-475234D01*
X4094225Y-488950D01*
X4085081Y-498094D01*
X4071620Y-502665D01*
X4057904Y-502665D01*
X4044188Y-498094D01*
X4039615Y-493521D01*
X4035297Y-484378D01*
X4496561Y-234950D02*
G01*
X4592065Y-234950D01*
X4496561Y-266700D02*
G01*
X4496561Y-202945D01*
X4496561Y-172973D02*
G01*
X4592065Y-172973D01*
X4496561Y-109473D02*
G01*
X4592065Y-109473D01*
X4542027Y-172973D02*
G01*
X4542027Y-109473D01*
X4514595Y-79502D02*
G01*
X4510024Y-70357D01*
X4496561Y-56642D01*
X4592065Y-56642D01*
X5068061Y-260350D02*
G01*
X5163565Y-260350D01*
X5068061Y-292100D02*
G01*
X5068061Y-228345D01*
X5068061Y-198373D02*
G01*
X5163565Y-198373D01*
X5068061Y-134873D02*
G01*
X5163565Y-134873D01*
X5113527Y-198373D02*
G01*
X5113527Y-134873D01*
X5068061Y-104902D02*
G01*
X5163565Y-104902D01*
X5068061Y-104902D02*
G01*
X5068061Y-45720D01*
X5113527Y-104902D02*
G01*
X5113527Y-68579D01*
X5163565Y-104902D02*
G01*
X5163565Y-45720D01*
X678428Y-266700D02*
G01*
X787394Y-266700D01*
X678428Y-266700D02*
G01*
X678428Y-219963D01*
X683508Y-204470D01*
X688842Y-199136D01*
X699256Y-194055D01*
X709670Y-194055D01*
X720084Y-199136D01*
X725164Y-204470D01*
X730244Y-219963D01*
X730244Y-266700D02*
G01*
X730244Y-219963D01*
X735578Y-204470D01*
X740658Y-199136D01*
X751072Y-194055D01*
X766820Y-194055D01*
X777234Y-199136D01*
X782314Y-204470D01*
X787394Y-219963D01*
X787394Y-266700D01*
X740658Y-159765D02*
G01*
X740658Y-66039D01*
X661499Y-1308183D02*
G01*
X770465Y-1308183D01*
X661499Y-1308183D02*
G01*
X661499Y-1261447D01*
X666579Y-1245699D01*
X671913Y-1240619D01*
X682327Y-1235285D01*
X692741Y-1235285D01*
X703155Y-1240619D01*
X708235Y-1245699D01*
X713315Y-1261447D01*
X713315Y-1308183D02*
G01*
X713315Y-1261447D01*
X718649Y-1245699D01*
X723729Y-1240619D01*
X734143Y-1235285D01*
X749891Y-1235285D01*
X760305Y-1240619D01*
X765385Y-1245699D01*
X770465Y-1261447D01*
X770465Y-1308183D01*
X676993Y-1154259D02*
G01*
X770465Y-1154259D01*
X723729Y-1200995D02*
G01*
X723729Y-1107523D01*
G36*
X3536899Y-1202436D02*
G01*
X3536899Y-1237691D01*
X3567379Y-1237691D01*
X3567379Y-1202436D01*
G37*
G36*
X3536899Y-1327708D02*
G01*
X3536899Y-1362964D01*
X3567379Y-1362964D01*
X3567379Y-1327708D01*
G37*
G36*
X3549599Y-745236D02*
G01*
X3549599Y-780491D01*
X3580079Y-780491D01*
X3580079Y-745236D01*
G37*
G36*
X3549599Y-870508D02*
G01*
X3549599Y-905764D01*
X3580079Y-905764D01*
X3580079Y-870508D01*
G37*
D33*
X3735024Y-1355321D02*
G01*
X3735024Y-1334698D01*
X3735024Y-1210078D02*
G01*
X3735024Y-1229700D01*
D34*
X3559779Y-1210078D02*
G01*
X3735024Y-1210078D01*
X3559779Y-1355321D02*
G01*
X3735024Y-1355321D01*
X3600223Y-1210078D02*
G01*
X3600223Y-1355321D01*
D33*
X3747724Y-898121D02*
G01*
X3747724Y-877498D01*
X3747724Y-752878D02*
G01*
X3747724Y-772500D01*
D34*
X3572479Y-752878D02*
G01*
X3747724Y-752878D01*
X3572479Y-898121D02*
G01*
X3747724Y-898121D01*
X3612923Y-752878D02*
G01*
X3612923Y-898121D01*
D10*
X4685903Y-513753D02*
G01*
X4385904Y-513753D01*
X4684567Y-325785D02*
G01*
X4384568Y-325785D01*
X4610100Y-419100D02*
G01*
X4457700Y-419100D01*
X4584700Y-469900D02*
G01*
X4584700Y-368300D01*
X4483100Y-378460D02*
G01*
X4584700Y-419100D01*
X4483100Y-459739D02*
G01*
X4483100Y-378460D01*
X4584700Y-419100D02*
G01*
X4483100Y-459739D01*
X5193903Y-513753D02*
G01*
X4893904Y-513753D01*
X5192567Y-325785D02*
G01*
X4892568Y-325785D01*
X5118100Y-419100D02*
G01*
X4965700Y-419100D01*
X5092700Y-469900D02*
G01*
X5092700Y-368300D01*
X4991100Y-378460D02*
G01*
X5092700Y-419100D01*
X4991100Y-459739D02*
G01*
X4991100Y-378460D01*
X5092700Y-419100D02*
G01*
X4991100Y-459739D01*
D35*
X1059205Y-796391D02*
G01*
X1379194Y-796391D01*
X1379194Y-1286408D01*
X1059205Y-1286408D01*
X1059205Y-796391D01*
X871702Y-780897D02*
G01*
X1024204Y-780897D01*
X2217394Y-1286408D02*
G01*
X1897405Y-1286408D01*
X1897405Y-796391D01*
X2217394Y-796391D01*
X2217394Y-1286408D01*
X2404897Y-1301902D02*
G01*
X2252395Y-1301902D01*
D34*
X2632478Y-1181320D02*
G01*
X2777721Y-1181320D01*
X2777721Y-1078158D01*
X2632478Y-876079D02*
G01*
X2777721Y-876079D01*
X2777721Y-979241D01*
X2632478Y-1074239D02*
G01*
X2632478Y-983160D01*
X882690Y-412620D02*
G01*
X882690Y-548612D01*
X1098509Y-548612D01*
X1098509Y-412620D01*
X882690Y-222379D02*
G01*
X882690Y-86387D01*
X1098509Y-86387D01*
X1098509Y-222379D01*
X5800719Y-752109D02*
G01*
X5929213Y-752109D01*
X5929213Y-568690D01*
X5800719Y-568690D01*
X5705480Y-752109D02*
G01*
X5576986Y-752109D01*
X5576986Y-568690D01*
X5705480Y-568690D01*
X2162180Y-263890D02*
G01*
X2033686Y-263890D01*
X2033686Y-447309D01*
X2162180Y-447309D01*
X2257419Y-263890D02*
G01*
X2385913Y-263890D01*
X2385913Y-447309D01*
X2257419Y-447309D01*
X3043580Y-311851D02*
G01*
X3043580Y-262280D01*
X3093151Y-262280D01*
X3458819Y-311851D02*
G01*
X3458819Y-262280D01*
X3409248Y-262280D01*
X3043580Y-627948D02*
G01*
X3043580Y-677519D01*
X3093151Y-677519D01*
X3458819Y-627948D02*
G01*
X3458819Y-677519D01*
X3409248Y-677519D01*
X3237560Y-1054130D02*
G01*
X3237560Y-975121D01*
X3137839Y-975121D02*
G01*
X3137839Y-1054130D01*
X3153079Y-1069370D02*
G01*
X3222320Y-1069370D01*
X3237560Y-850869D02*
G01*
X3237560Y-929878D01*
X3137839Y-929878D02*
G01*
X3137839Y-850869D01*
X3153079Y-835629D02*
G01*
X3222320Y-835629D01*
X3594069Y-240360D02*
G01*
X3673078Y-240360D01*
X3673078Y-140639D02*
G01*
X3594069Y-140639D01*
X3578829Y-155879D02*
G01*
X3578829Y-225120D01*
X3797330Y-240360D02*
G01*
X3718321Y-240360D01*
X3718321Y-140639D02*
G01*
X3797330Y-140639D01*
X3812570Y-155879D02*
G01*
X3812570Y-225120D01*
X2882930Y-229539D02*
G01*
X2803921Y-229539D01*
X2803921Y-329260D02*
G01*
X2882930Y-329260D01*
X2898170Y-314020D02*
G01*
X2898170Y-244779D01*
X2679669Y-229539D02*
G01*
X2758678Y-229539D01*
X2758678Y-329260D02*
G01*
X2679669Y-329260D01*
X2664429Y-314020D02*
G01*
X2664429Y-244779D01*
X2882930Y-369239D02*
G01*
X2803921Y-369239D01*
X2803921Y-468960D02*
G01*
X2882930Y-468960D01*
X2898170Y-453720D02*
G01*
X2898170Y-384479D01*
X2679669Y-369239D02*
G01*
X2758678Y-369239D01*
X2758678Y-468960D02*
G01*
X2679669Y-468960D01*
X2664429Y-453720D02*
G01*
X2664429Y-384479D01*
X2882930Y-508939D02*
G01*
X2803921Y-508939D01*
X2803921Y-608660D02*
G01*
X2882930Y-608660D01*
X2898170Y-593420D02*
G01*
X2898170Y-524179D01*
X2679669Y-508939D02*
G01*
X2758678Y-508939D01*
X2758678Y-608660D02*
G01*
X2679669Y-608660D01*
X2664429Y-593420D02*
G01*
X2664429Y-524179D01*
X1258239Y-495269D02*
G01*
X1258239Y-574278D01*
X1357960Y-574278D02*
G01*
X1357960Y-495269D01*
X1342720Y-480029D02*
G01*
X1273479Y-480029D01*
X1258239Y-698530D02*
G01*
X1258239Y-619521D01*
X1357960Y-619521D02*
G01*
X1357960Y-698530D01*
X1342720Y-713770D02*
G01*
X1273479Y-713770D01*
X1575739Y-495269D02*
G01*
X1575739Y-574278D01*
X1675460Y-574278D02*
G01*
X1675460Y-495269D01*
X1660220Y-480029D02*
G01*
X1590979Y-480029D01*
X1575739Y-698530D02*
G01*
X1575739Y-619521D01*
X1675460Y-619521D02*
G01*
X1675460Y-698530D01*
X1660220Y-713770D02*
G01*
X1590979Y-713770D01*
X1815160Y-698530D02*
G01*
X1815160Y-619521D01*
X1715439Y-619521D02*
G01*
X1715439Y-698530D01*
X1730679Y-713770D02*
G01*
X1799920Y-713770D01*
X1815160Y-495269D02*
G01*
X1815160Y-574278D01*
X1715439Y-574278D02*
G01*
X1715439Y-495269D01*
X1730679Y-480029D02*
G01*
X1799920Y-480029D01*
X5726760Y-1320830D02*
G01*
X5726760Y-1241821D01*
X5627039Y-1241821D02*
G01*
X5627039Y-1320830D01*
X5642279Y-1336070D02*
G01*
X5711520Y-1336070D01*
X5726760Y-1117569D02*
G01*
X5726760Y-1196578D01*
X5627039Y-1196578D02*
G01*
X5627039Y-1117569D01*
X5642279Y-1102329D02*
G01*
X5711520Y-1102329D01*
X5561660Y-1320830D02*
G01*
X5561660Y-1241821D01*
X5461939Y-1241821D02*
G01*
X5461939Y-1320830D01*
X5477179Y-1336070D02*
G01*
X5546420Y-1336070D01*
X5561660Y-1117569D02*
G01*
X5561660Y-1196578D01*
X5461939Y-1196578D02*
G01*
X5461939Y-1117569D01*
X5477179Y-1102329D02*
G01*
X5546420Y-1102329D01*
X3759230Y-940739D02*
G01*
X3680221Y-940739D01*
X3680221Y-1040460D02*
G01*
X3759230Y-1040460D01*
X3774470Y-1025220D02*
G01*
X3774470Y-955979D01*
X3555969Y-940739D02*
G01*
X3634978Y-940739D01*
X3634978Y-1040460D02*
G01*
X3555969Y-1040460D01*
X3540729Y-1025220D02*
G01*
X3540729Y-955979D01*
X3743721Y-267639D02*
G01*
X3815524Y-267639D01*
X3815524Y-367360D01*
X3743721Y-367360D01*
X3698478Y-267639D02*
G01*
X3626675Y-267639D01*
X3626675Y-367360D01*
X3698478Y-367360D01*
X4959479Y-1111290D02*
G01*
X4823487Y-1111290D01*
X4823487Y-1327109D01*
X4959479Y-1327109D01*
X5149720Y-1111290D02*
G01*
X5285712Y-1111290D01*
X5285712Y-1327109D01*
X5149720Y-1327109D01*
X3794521Y-547039D02*
G01*
X3866324Y-547039D01*
X3866324Y-646760D01*
X3794521Y-646760D01*
X3749278Y-547039D02*
G01*
X3677475Y-547039D01*
X3677475Y-646760D01*
X3749278Y-646760D01*
X1397939Y-586978D02*
G01*
X1397939Y-515175D01*
X1497660Y-515175D01*
X1497660Y-586978D01*
X1397939Y-632221D02*
G01*
X1397939Y-704024D01*
X1497660Y-704024D01*
X1497660Y-632221D01*
X3290239Y-879078D02*
G01*
X3290239Y-807275D01*
X3389960Y-807275D01*
X3389960Y-879078D01*
X3290239Y-924321D02*
G01*
X3290239Y-996124D01*
X3389960Y-996124D01*
X3389960Y-924321D01*
X2854721Y-1245539D02*
G01*
X2926524Y-1245539D01*
X2926524Y-1345260D01*
X2854721Y-1345260D01*
X2809478Y-1245539D02*
G01*
X2737675Y-1245539D01*
X2737675Y-1345260D01*
X2809478Y-1345260D01*
X3622278Y-1180160D02*
G01*
X3550475Y-1180160D01*
X3550475Y-1080439D01*
X3622278Y-1080439D01*
X3667521Y-1180160D02*
G01*
X3739324Y-1180160D01*
X3739324Y-1080439D01*
X3667521Y-1080439D01*
X2860278Y-811860D02*
G01*
X2788475Y-811860D01*
X2788475Y-712139D01*
X2860278Y-712139D01*
X2905521Y-811860D02*
G01*
X2977324Y-811860D01*
X2977324Y-712139D01*
X2905521Y-712139D01*
X2882869Y-938860D02*
G01*
X2961878Y-938860D01*
X2961878Y-839139D02*
G01*
X2882869Y-839139D01*
X2867629Y-854379D02*
G01*
X2867629Y-923620D01*
X3086130Y-938860D02*
G01*
X3007121Y-938860D01*
X3007121Y-839139D02*
G01*
X3086130Y-839139D01*
X3101370Y-854379D02*
G01*
X3101370Y-923620D01*
X3886230Y-407339D02*
G01*
X3807221Y-407339D01*
X3807221Y-507060D02*
G01*
X3886230Y-507060D01*
X3901470Y-491820D02*
G01*
X3901470Y-422579D01*
X3682969Y-407339D02*
G01*
X3761978Y-407339D01*
X3761978Y-507060D02*
G01*
X3682969Y-507060D01*
X3667729Y-491820D02*
G01*
X3667729Y-422579D01*
X4327519Y-231409D02*
G01*
X4456013Y-231409D01*
X4456013Y-47990D01*
X4327519Y-47990D01*
X4232280Y-231409D02*
G01*
X4103786Y-231409D01*
X4103786Y-47990D01*
X4232280Y-47990D01*
X4791080Y-47990D02*
G01*
X4662586Y-47990D01*
X4662586Y-231409D01*
X4791080Y-231409D01*
X4886319Y-47990D02*
G01*
X5014813Y-47990D01*
X5014813Y-231409D01*
X4886319Y-231409D01*
G75*
G01*
X3137840Y-1054130D02*
G03*
X3153080Y-1069370I15240J0D01*
G75*
G01*
X3222320Y-1069370D02*
G03*
X3237560Y-1054130I0J15240D01*
G75*
G01*
X3137840Y-850870D02*
G02*
X3153080Y-835630I15240J0D01*
G75*
G01*
X3222320Y-835630D02*
G02*
X3237560Y-850870I0J-15240D01*
G75*
G01*
X3594070Y-140640D02*
G03*
X3578830Y-155880I0J-15240D01*
G75*
G01*
X3578830Y-225120D02*
G03*
X3594070Y-240360I15240J0D01*
G75*
G01*
X3797330Y-140640D02*
G02*
X3812570Y-155880I0J-15240D01*
G75*
G01*
X3812570Y-225120D02*
G02*
X3797330Y-240360I-15240J0D01*
G75*
G01*
X2882930Y-329260D02*
G03*
X2898170Y-314020I0J15240D01*
G75*
G01*
X2898170Y-244780D02*
G03*
X2882930Y-229540I-15240J0D01*
G75*
G01*
X2679670Y-329260D02*
G02*
X2664430Y-314020I0J15240D01*
G75*
G01*
X2664430Y-244780D02*
G02*
X2679670Y-229540I15240J0D01*
G75*
G01*
X2882930Y-468960D02*
G03*
X2898170Y-453720I0J15240D01*
G75*
G01*
X2898170Y-384480D02*
G03*
X2882930Y-369240I-15240J0D01*
G75*
G01*
X2679670Y-468960D02*
G02*
X2664430Y-453720I0J15240D01*
G75*
G01*
X2664430Y-384480D02*
G02*
X2679670Y-369240I15240J0D01*
G75*
G01*
X2882930Y-608660D02*
G03*
X2898170Y-593420I0J15240D01*
G75*
G01*
X2898170Y-524180D02*
G03*
X2882930Y-508940I-15240J0D01*
G75*
G01*
X2679670Y-608660D02*
G02*
X2664430Y-593420I0J15240D01*
G75*
G01*
X2664430Y-524180D02*
G02*
X2679670Y-508940I15240J0D01*
G75*
G01*
X1357960Y-495270D02*
G03*
X1342720Y-480030I-15240J0D01*
G75*
G01*
X1273480Y-480030D02*
G03*
X1258240Y-495270I0J-15240D01*
G75*
G01*
X1357960Y-698530D02*
G02*
X1342720Y-713770I-15240J0D01*
G75*
G01*
X1273480Y-713770D02*
G02*
X1258240Y-698530I0J15240D01*
G75*
G01*
X1675460Y-495270D02*
G03*
X1660220Y-480030I-15240J0D01*
G75*
G01*
X1590980Y-480030D02*
G03*
X1575740Y-495270I0J-15240D01*
G75*
G01*
X1675460Y-698530D02*
G02*
X1660220Y-713770I-15240J0D01*
G75*
G01*
X1590980Y-713770D02*
G02*
X1575740Y-698530I0J15240D01*
G75*
G01*
X1715440Y-698530D02*
G03*
X1730680Y-713770I15240J0D01*
G75*
G01*
X1799920Y-713770D02*
G03*
X1815160Y-698530I0J15240D01*
G75*
G01*
X1715440Y-495270D02*
G02*
X1730680Y-480030I15240J0D01*
G75*
G01*
X1799920Y-480030D02*
G02*
X1815160Y-495270I0J-15240D01*
G75*
G01*
X5627040Y-1320830D02*
G03*
X5642280Y-1336070I15240J0D01*
G75*
G01*
X5711520Y-1336070D02*
G03*
X5726760Y-1320830I0J15240D01*
G75*
G01*
X5627040Y-1117570D02*
G02*
X5642280Y-1102330I15240J0D01*
G75*
G01*
X5711520Y-1102330D02*
G02*
X5726760Y-1117570I0J-15240D01*
G75*
G01*
X5461940Y-1320830D02*
G03*
X5477180Y-1336070I15240J0D01*
G75*
G01*
X5546420Y-1336070D02*
G03*
X5561660Y-1320830I0J15240D01*
G75*
G01*
X5461940Y-1117570D02*
G02*
X5477180Y-1102330I15240J0D01*
G75*
G01*
X5546420Y-1102330D02*
G02*
X5561660Y-1117570I0J-15240D01*
G75*
G01*
X3759230Y-1040460D02*
G03*
X3774470Y-1025220I0J15240D01*
G75*
G01*
X3774470Y-955980D02*
G03*
X3759230Y-940740I-15240J0D01*
G75*
G01*
X3555970Y-1040460D02*
G02*
X3540730Y-1025220I0J15240D01*
G75*
G01*
X3540730Y-955980D02*
G02*
X3555970Y-940740I15240J0D01*
G75*
G01*
X2882870Y-839140D02*
G03*
X2867630Y-854380I0J-15240D01*
G75*
G01*
X2867630Y-923620D02*
G03*
X2882870Y-938860I15240J0D01*
G75*
G01*
X3086130Y-839140D02*
G02*
X3101370Y-854380I0J-15240D01*
G75*
G01*
X3101370Y-923620D02*
G02*
X3086130Y-938860I-15240J0D01*
G75*
G01*
X3886230Y-507060D02*
G03*
X3901470Y-491820I0J15240D01*
G75*
G01*
X3901470Y-422580D02*
G03*
X3886230Y-407340I-15240J0D01*
G75*
G01*
X3682970Y-507060D02*
G02*
X3667730Y-491820I0J15240D01*
G75*
G01*
X3667730Y-422580D02*
G02*
X3682970Y-407340I15240J0D01*
D36*
G75*
G01
X3133700Y-723900D02*
G03X3133700Y-723900I-7493J0D01*
M02*
